<svg xmlns="http://www.w3.org/2000/svg" viewBox="0 0 500 500"><g id="freepik--Floor--inject-28"><ellipse id="freepik--floor--inject-28" cx="252.29" cy="357.04" rx="233.93" ry="135.06" style="fill:#fafafa"></ellipse></g><g id="freepik--Shadow--inject-28"><path id="freepik--shadow--inject-28" d="M107.15,439.29l8.57,5a8.79,8.79,0,0,0,7.93,0L293.9,345.88c2.19-1.26,2.19-3.31,0-4.58l-8.56-4.95a8.79,8.79,0,0,0-7.93,0L107.15,434.72C105,436,105,438,107.15,439.29Z" style="fill:#ebebeb"></path><ellipse id="freepik--shadow--inject-28" cx="289.78" cy="438.85" rx="72.42" ry="41.59" style="fill:#ebebeb"></ellipse><ellipse id="freepik--shadow--inject-28" cx="406.59" cy="438.85" rx="72.42" ry="41.59" style="fill:#ebebeb"></ellipse><path id="freepik--shadow--inject-28" d="M44.29,424.33l-26.2-15.12c-3.17-1.83-3.17-4.8,0-6.63l182.3-105.25a12.67,12.67,0,0,1,11.47,0l26.2,15.13c3.17,1.83,3.17,4.8,0,6.62L55.77,424.33A12.69,12.69,0,0,1,44.29,424.33Z" style="fill:#ebebeb"></path></g><g id="freepik--Newspaper--inject-28"><g id="freepik--news-paper--inject-28"><path d="M216.56,121.84v2.94l-10.18,5.88h0l-15.27,8.83L56.32,217.3a5.66,5.66,0,0,0-1.92,2,5.49,5.49,0,0,0-.8,2.68V401.14c0,9.75-6.85,13.69-15.27,8.82s-15.28-16.71-15.28-26.45V204.36a5.49,5.49,0,0,1,.8-2.68,5.58,5.58,0,0,1,1.92-2l150-86.64,14.5-8.37a5.54,5.54,0,0,1,.78,2.69v2.74L30.85,202.8A5.22,5.22,0,0,0,29,204.68a5.5,5.5,0,0,0-.89,2.82v179c0,6.5,4.56,14.38,10.19,17.63s10.18.61,10.18-5.88V219.06a6,6,0,0,1,2.72-4.71l164.58-95A5.23,5.23,0,0,1,216.56,121.84Z" style="fill:#e0e0e0"></path><path d="M201.28,113.21v8.63L46.13,211.42a5.58,5.58,0,0,0-1.92,2,5.49,5.49,0,0,0-.8,2.68V395.26c0,3.25-2.27,4.57-5.08,2.94a11.22,11.22,0,0,1-5.09-8.81V210.24a5.59,5.59,0,0,1,.79-2.68,5.84,5.84,0,0,1,1.92-2l164.56-95A5.57,5.57,0,0,1,201.28,113.21Z" style="fill:#e0e0e0"></path><path d="M59.48,222.26a5.52,5.52,0,0,0-.79,2.67V402.54a29.57,29.57,0,0,1-.25,3.86c0,.34-.1.66-.15,1s-.11.59-.18.89-.12.53-.2.78-.12.49-.2.73a12.57,12.57,0,0,1-5.46,7.35c-3.65,2.09-8.54,1.84-13.92-1.27C27.07,409.36,18,392.86,18,379V201.42a5.49,5.49,0,0,1,.79-2.67l5.1,2.93a5.49,5.49,0,0,0-.8,2.68V383.51c0,9.74,6.84,21.58,15.28,26.45s15.27.93,15.27-8.82V222a5.49,5.49,0,0,1,.8-2.68Z" style="fill:#ebebeb"></path><path d="M49.3,216.38a5.59,5.59,0,0,0-.79,2.68V398.2c0,6.49-4.56,9.12-10.18,5.88S28.14,393,28.14,386.45V207.5a5.5,5.5,0,0,1,.89-2.82l5,2.88a5.59,5.59,0,0,0-.79,2.68V389.39a11.22,11.22,0,0,0,5.09,8.81c2.81,1.63,5.08.31,5.08-2.94V216.12a5.49,5.49,0,0,1,.8-2.68Z" style="fill:#ebebeb"></path><path d="M190.32,104.65,175.82,113l-150,86.64a5.58,5.58,0,0,0-1.92,2l-5.1-2.93a5.38,5.38,0,0,1,1.92-2l150.06-86.64,2.89-1.68,2.87-1.66,2.52-1.45,1.49-.87,2.77-1.59a5.86,5.86,0,0,1,5.27-.1A5,5,0,0,1,190.32,104.65Z" style="fill:#fafafa"></path><path d="M226,125.22h0l-14.5,8.38L186,148.3,61.41,220.23a5.72,5.72,0,0,0-1.93,2l-5.08-2.94a5.66,5.66,0,0,1,1.92-2L191.1,139.49l15.27-8.83h0l10.18-5.88,2.37-1.36.19-.12a5.82,5.82,0,0,1,5,0l.05,0a1.45,1.45,0,0,1,.26.17A5.32,5.32,0,0,1,226,125.22Z" style="fill:#fafafa"></path><path d="M200.51,110.53,36,205.54a5.84,5.84,0,0,0-1.92,2l-5-2.88a5.22,5.22,0,0,1,1.82-1.88l160.26-92.72,2.36-1.37a5.84,5.84,0,0,1,5.26-.1A5.11,5.11,0,0,1,200.51,110.53Z" style="fill:#fafafa"></path><path d="M215.81,119.33l-164.58,95a5.64,5.64,0,0,0-1.93,2l-5.09-2.94a5.58,5.58,0,0,1,1.92-2l155.15-89.58,7.47-4.32a5.81,5.81,0,0,1,5.26-.08A5,5,0,0,1,215.81,119.33Z" style="fill:#fafafa"></path><path d="M55.67,414.64a14.36,14.36,0,0,0,2.66-5.49c.07-.24.13-.51.2-.77l.18-.92.15-1a29.44,29.44,0,0,0,.26-3.92V224.93a5,5,0,0,1,.73-2.45,5.31,5.31,0,0,1,1.78-1.88l124.58-71.93,39.58-22.84a5,5,0,0,1,.52,2.09v177.6c0,6.81-2.31,12-6.34,14.27Z" style="fill:#fafafa"></path><path d="M225.59,126.44a4.23,4.23,0,0,1,.29,1.48v177.6c0,6.65-2.23,11.72-6.13,13.9L57.1,413.32a15.55,15.55,0,0,0,1.63-4c.08-.26.15-.54.22-.85L59,408c0-.14.06-.29.09-.47s.11-.65.16-1a30.31,30.31,0,0,0,.26-4V224.93a4.61,4.61,0,0,1,.67-2.23A4.66,4.66,0,0,1,61.84,221L186.42,149l25.46-14.69,13.71-7.91m.37-1.21-14.5,8.38L186,148.3,61.41,220.23a5.72,5.72,0,0,0-1.93,2,5.52,5.52,0,0,0-.79,2.67V402.54a29.57,29.57,0,0,1-.25,3.86c0,.34-.1.66-.15,1s-.11.59-.18.89-.12.53-.2.78a12.82,12.82,0,0,1-5.9,8.21l168.17-97.09c4-2.26,6.56-7.36,6.56-14.64V127.92a5.51,5.51,0,0,0-.78-2.69Z" style="fill:#e0e0e0"></path><path d="M83.39,243.55a12.07,12.07,0,0,1,.09,2,13.2,13.2,0,0,1-.09,2.05L74.06,253a12.07,12.07,0,0,1-.09-2,15.33,15.33,0,0,1,.09-2.05L77,247.27V227l-2.41,1.39a12,12,0,0,1-.09-2,15.43,15.43,0,0,1,.09-2.06l8.06-4.66,7.67,14.58v-15l-2.4,1.39a12.07,12.07,0,0,1-.09-2,15.33,15.33,0,0,1,.09-2.05L97,211.38a12.23,12.23,0,0,1,.09,2A13.46,13.46,0,0,1,97,215.4L94.3,217v24.3l-4.48,2.59L81,227.22v17.72Z" style="fill:#455a64"></path><path d="M115.35,200.8v7a14,14,0,0,1-1.47,1,11.87,11.87,0,0,1-1.53.77v-3l-7.25,4.19v7.38l3.46-2v-2.93a13.79,13.79,0,0,1,1.5-1,6.68,6.68,0,0,1,1.44-.71v9.91a8.28,8.28,0,0,1-1.44,1,9.5,9.5,0,0,1-1.5.75V220l-3.46,2v9l7.55-4.36v-3.77a13.82,13.82,0,0,1,1.53-1,13.31,13.31,0,0,1,1.47-.74v7.78l-17.29,10a16.35,16.35,0,0,1-.09-1.95,17.85,17.85,0,0,1,.09-2.06l2.71-1.56V213.06l-2.41,1.39a14.29,14.29,0,0,1-.09-2c0-1.16.09-2.06.09-2.06Z" style="fill:#455a64"></path><path d="M129.55,197.81l4.18-2.41,3.76,16.52.21-.12s1.65-13.55,2.25-21.2l-2.4,1.39s-.06-.69-.06-2.05.06-2,.06-2l8.18-4.72a13.3,13.3,0,0,1,.09,1.87,17,17,0,0,1-.09,2.14l-2.11,1.22c-.75,8.65-2.88,26-2.88,26L134.6,218l-3.1-13.65-3.1,17.22-6.13,3.55s-2.29-14.45-2.86-22.65l-2.11,1.21s-.06-.69-.06-2.05.06-2,.06-2l8.52-4.91a13.3,13.3,0,0,1,.09,1.87,17.19,17.19,0,0,1-.09,2.14l-2.41,1.39c.42,7.21,2.2,18.62,2.2,18.62l.21-.12Z" style="fill:#455a64"></path><path d="M160.49,182.2a12.28,12.28,0,0,1-1.59,1,11.62,11.62,0,0,1-1.72.87v-2.85s-1.05-.48-3.07.69a7.51,7.51,0,0,0-3.55,5.82c0,1.4.33,2.69,1.69,2.47l3.94-.59c2.1-.29,5.29-.09,5.29,5.25s-2.73,9.76-7.82,12.69c-4.84,2.8-7,.66-7,.66v-5.38a16.44,16.44,0,0,1,1.6-1,13.74,13.74,0,0,1,1.71-.87v3s1.11.8,3.73-.71a7,7,0,0,0,3.79-6c0-2-1.29-2.7-2.68-2.5l-4.3.64c-3,.43-3.94-1.82-3.94-5.31,0-4.73,3.46-10.05,7.58-12.43a7.06,7.06,0,0,1,6.38-.48Z" style="fill:#455a64"></path><polygon points="211.46 144.66 168.79 169.29 168.79 198.26 211.46 173.62 211.46 144.66" style="fill:#e0e0e0"></polygon><polygon points="211.46 190.49 74.15 269.76 74.15 262.27 211.46 183 211.46 190.49" style="fill:#BA68C8"></polygon><polygon points="117.7 322.56 74.15 347.7 74.15 279.14 117.7 254 117.7 322.56" style="fill:#455a64"></polygon><path d="M78.56,284a.49.49,0,0,1-.42-.24.48.48,0,0,1,.18-.67l34.73-20a.48.48,0,0,1,.48.84L78.8,283.93A.42.42,0,0,1,78.56,284Z" style="fill:#fafafa"></path><path d="M78.56,290.08a.49.49,0,0,1-.42-.24.48.48,0,0,1,.18-.67l34.73-20.05a.49.49,0,0,1,.66.18.48.48,0,0,1-.18.66L78.8,290A.42.42,0,0,1,78.56,290.08Z" style="fill:#fafafa"></path><path d="M78.56,296.16a.49.49,0,0,1-.42-.24.48.48,0,0,1,.18-.67l34.73-20.05a.49.49,0,0,1,.66.18.48.48,0,0,1-.18.66l-34.73,20A.42.42,0,0,1,78.56,296.16Z" style="fill:#fafafa"></path><path d="M78.56,302.24a.49.49,0,0,1-.42-.24.48.48,0,0,1,.18-.67l34.73-20.05a.49.49,0,0,1,.66.18.48.48,0,0,1-.18.66L78.8,302.18A.5.5,0,0,1,78.56,302.24Z" style="fill:#fafafa"></path><path d="M78.56,308.32a.49.49,0,0,1-.42-.24.48.48,0,0,1,.18-.67l34.73-20.05a.49.49,0,0,1,.66.18.48.48,0,0,1-.18.66L78.8,308.26A.5.5,0,0,1,78.56,308.32Z" style="fill:#fafafa"></path><path d="M78.56,314.4a.49.49,0,0,1-.42-.24.48.48,0,0,1,.18-.67l34.73-20.05a.49.49,0,0,1,.66.18.48.48,0,0,1-.18.66L78.8,314.34A.5.5,0,0,1,78.56,314.4Z" style="fill:#fafafa"></path><path d="M78.56,320.48a.49.49,0,0,1-.42-.24.48.48,0,0,1,.18-.67l34.73-20.05a.49.49,0,0,1,.66.18.48.48,0,0,1-.18.66L78.8,320.42A.5.5,0,0,1,78.56,320.48Z" style="fill:#fafafa"></path><path d="M78.56,326.56a.49.49,0,0,1-.42-.24.47.47,0,0,1,.18-.66l34.73-20.06a.49.49,0,0,1,.66.18.49.49,0,0,1-.18.67L78.8,326.5A.5.5,0,0,1,78.56,326.56Z" style="fill:#fafafa"></path><path d="M78.56,332.64a.49.49,0,0,1-.42-.24.47.47,0,0,1,.18-.66l34.73-20.06a.49.49,0,0,1,.66.18.49.49,0,0,1-.18.67L78.8,332.58A.5.5,0,0,1,78.56,332.64Z" style="fill:#fafafa"></path><path d="M78.56,338.72a.48.48,0,0,1-.24-.9l34.73-20.06a.49.49,0,0,1,.48.85L78.8,338.66A.5.5,0,0,1,78.56,338.72Z" style="fill:#fafafa"></path><polygon points="211.46 314.29 127.33 362.87 127.33 248.44 211.46 199.86 211.46 314.29" style="fill:#e0e0e0"></polygon><path d="M133.25,250.37l73.13-42.21c1-.6,1.86-.12,1.86,1.07v60a4.12,4.12,0,0,1-1.86,3.23l-73.12,42.21c-1,.6-1.87.12-1.87-1.07v-60A4.15,4.15,0,0,1,133.25,250.37Z" style="fill:#fff"></path><path d="M187.84,242.79l-12.21,21.63,8.58,11.13L155.84,251.1,131.39,304v9.58c0,1.19.84,1.67,1.87,1.07l73.12-42.21a4.12,4.12,0,0,0,1.86-3.23v-7.81Zm8.44-11.35a8.11,8.11,0,0,0,3.67-6.35c0-2.34-1.64-3.29-3.67-2.12a8.11,8.11,0,0,0-3.66,6.35C192.62,231.66,194.26,232.6,196.28,231.44Z" style="fill:#BA68C8"></path><g style="opacity:0.5"><path d="M187.84,242.79l-12.21,21.63,8.58,11.13L155.84,251.1,131.39,304v9.58c0,1.19.84,1.67,1.87,1.07l73.12-42.21a4.12,4.12,0,0,0,1.86-3.23v-7.81Zm8.44-11.35a8.11,8.11,0,0,0,3.67-6.35c0-2.34-1.64-3.29-3.67-2.12a8.11,8.11,0,0,0-3.66,6.35C192.62,231.66,194.26,232.6,196.28,231.44Z" style="fill:#fff"></path></g><polygon points="146.4 317.57 207.97 282.02 207.97 306.65 146.4 342.2 146.4 317.57" style="fill:#fafafa"></polygon><polygon points="140.8 345.43 74.15 383.91 74.15 359.29 140.8 320.81 140.8 345.43" style="fill:#BA68C8"></polygon></g></g><g id="freepik--Device--inject-28"><g id="freepik--device--inject-28"><g id="freepik--Tablet--inject-28"><path d="M283,346.24,126.27,436.7c-3.89,2.24-6.08.93-8.06-.21a8.26,8.26,0,0,1-4.21-6.87V296a11.26,11.26,0,0,1,5.1-8.82l156.72-90.47a7.17,7.17,0,0,1,7.47.33c2,1.14,4.8,3.51,4.8,6.76l0,133.57A9.59,9.59,0,0,1,283,346.24Z" style="fill:#263238"></path><path d="M282.13,341.44V205.51L124.78,296.37,115.51,291a10.32,10.32,0,0,1,3.6-3.8l156.72-90.47a7.17,7.17,0,0,1,7.47.33c2,1.14,4.8,3.51,4.8,6.76l0,133.57a9.73,9.73,0,0,1-2.05,6.28l-.29-.16Z" style="fill:#37474f"></path><path d="M126.4,435.26,282.86,345a9,9,0,0,0,4.05-7V206.34c0-3.49-2.47-4.92-5.49-3.18l-155.5,89.76a7.93,7.93,0,0,0-3.57,6.19V432.92C122.35,435.5,124.17,436.55,126.4,435.26Z" style="fill:#455a64"></path><path d="M137.62,425.51,273.81,346.9a8.64,8.64,0,0,0,3.91-6.76V213.07c0-2.49-1.73-3.49-3.89-2.25L136.6,290a8.69,8.69,0,0,0-3.72,5.3c0,.17-.07.33-.1.49a6.32,6.32,0,0,0-.08,1V422.66C132.69,425.8,134.91,427.08,137.62,425.51Z"></path><path d="M271.1,337.43a8.64,8.64,0,0,1-3.9,6.75L132.69,421.82v-125a6.32,6.32,0,0,1,.08-1c0-.16.07-.32.1-.49a8.69,8.69,0,0,1,3.72-5.3l134.51-77.65Z" style="fill:#BA68C8"></path><g style="opacity:0.5"><path d="M271.1,337.43a8.64,8.64,0,0,1-3.9,6.75L132.69,421.82v-125a6.32,6.32,0,0,1,.08-1c0-.16.07-.32.1-.49a8.69,8.69,0,0,1,3.72-5.3l134.51-77.65Z" style="fill:#fff"></path></g><path d="M127.1,347.15l0,19.11c0,.67.44,1,1,.64a2.25,2.25,0,0,0,1-1.79l0-19.11c0-.67-.45-1-1-.64A2.26,2.26,0,0,0,127.1,347.15Z" style="fill:#263238"></path><path d="M126.66,372.29c0,.76.54,1.07,1.2.69a2.67,2.67,0,0,0,1.19-2.07c0-.76-.54-1.06-1.19-.69A2.65,2.65,0,0,0,126.66,372.29Z" style="fill:#263238"></path><path d="M140.58,282.54a4.3,4.3,0,0,1-3.89.07,1.27,1.27,0,0,1-.74-1.06c0-.28,0-1.34,0-1.63a1.44,1.44,0,0,1,.86-1.17l12.32-7.11a4.3,4.3,0,0,1,3.89-.07,1.28,1.28,0,0,1,.74,1c0,.29,0,1.39,0,1.68a1.46,1.46,0,0,1-.86,1.17Z" style="fill:#263238"></path><path d="M140.58,280.92l12.32-7.11c1.1-.64,1.16-1.64.12-2.24a4.3,4.3,0,0,0-3.89.07l-12.32,7.11c-1.1.64-1.16,1.64-.12,2.24A4.27,4.27,0,0,0,140.58,280.92Z" style="fill:#455a64"></path><path d="M162.13,270.1a4.3,4.3,0,0,1-3.89.07,1.27,1.27,0,0,1-.74-1.06c0-.28,0-1.34,0-1.63a1.47,1.47,0,0,1,.87-1.17l12.31-7.11a4.27,4.27,0,0,1,3.89-.07,1.27,1.27,0,0,1,.74,1c0,.29,0,1.39,0,1.67a1.46,1.46,0,0,1-.86,1.18Z" style="fill:#263238"></path><path d="M162.13,268.48l12.32-7.11c1.1-.64,1.16-1.64.12-2.24a4.27,4.27,0,0,0-3.89.07l-12.31,7.11c-1.11.64-1.17,1.64-.13,2.24A4.3,4.3,0,0,0,162.13,268.48Z" style="fill:#455a64"></path></g><g id="freepik--News--inject-28"><polygon points="151.21 291.26 256.12 230.69 256.12 350.08 151.21 410.65 151.21 291.26" style="fill:#fafafa"></polygon><path d="M255.69,231.43v118.4l-104,60.08V291.51l104.05-60.08m.86-1.48L150.78,291V411.39l105.77-61.07V230Z" style="fill:#e0e0e0"></path><polygon points="256.55 229.95 253.03 227.91 147.25 288.98 150.78 291.01 256.55 229.95" style="fill:#f0f0f0"></polygon><polygon points="147.25 288.98 150.78 291.01 150.78 411.39 147.25 413.43 147.25 288.98" style="fill:#e0e0e0"></polygon><path d="M163.6,308.32a8,8,0,0,1,.06,1.3,8.74,8.74,0,0,1-.06,1.36l-6.17,3.56a8,8,0,0,1-.06-1.3,10.16,10.16,0,0,1,.06-1.36l1.91-1.1V297.37l-1.59.91a7.8,7.8,0,0,1-.06-1.29,10.16,10.16,0,0,1,.06-1.36l5.33-3.07,5.07,9.64v-9.92l-1.59.92a8,8,0,0,1-.06-1.29,10,10,0,0,1,.06-1.36l6.05-3.5a8,8,0,0,1,.06,1.3,8.74,8.74,0,0,1-.06,1.36l-1.79,1v16.07l-3,1.71-5.84-11v11.72Z" style="fill:#455a64"></path><path d="M184.74,280.05v4.62a10.77,10.77,0,0,1-1,.64,7.7,7.7,0,0,1-1,.5v-2l-4.8,2.77v4.88l2.29-1.32v-1.94a9.66,9.66,0,0,1,1-.65,3.92,3.92,0,0,1,.95-.47v6.55a5.22,5.22,0,0,1-.95.63,5.87,5.87,0,0,1-1,.49v-2L178,294.1V300l5-2.89v-2.49a8.47,8.47,0,0,1,1-.66,9.17,9.17,0,0,1,1-.49v5.15l-11.44,6.6a10.67,10.67,0,0,1-.06-1.29,11.76,11.76,0,0,1,.06-1.36l1.79-1V288.16l-1.59.92a9.31,9.31,0,0,1-.06-1.29c0-.77.06-1.36.06-1.36Z" style="fill:#455a64"></path><path d="M194.12,278.08l2.77-1.59,2.48,10.92.14-.08s1.09-9,1.49-14l-1.59.92s0-.45,0-1.35,0-1.3,0-1.3l5.41-3.12a8.69,8.69,0,0,1,.06,1.24,11.23,11.23,0,0,1-.06,1.41l-1.39.8c-.5,5.73-1.91,17.17-1.91,17.17l-4.06,2.35-2.05-9-2,11.39-4.05,2.34s-1.51-9.55-1.89-15L186,282s0-.45,0-1.36,0-1.29,0-1.29l5.63-3.25a10.4,10.4,0,0,1,.05,1.24,13.21,13.21,0,0,1-.05,1.41l-1.6.92c.28,4.77,1.46,12.31,1.46,12.31l.14-.08Z" style="fill:#455a64"></path><path d="M214.58,267.75a7.38,7.38,0,0,1-1.05.69,8.05,8.05,0,0,1-1.14.58v-1.89s-.69-.31-2,.46a5,5,0,0,0-2.34,3.85c0,.92.22,1.78,1.11,1.63l2.61-.39c1.39-.19,3.5-.06,3.5,3.47a9.56,9.56,0,0,1-5.17,8.4c-3.21,1.84-4.66.43-4.66.43v-3.55a10.23,10.23,0,0,1,1.06-.69,8.22,8.22,0,0,1,1.13-.58v2s.74.53,2.47-.47a4.6,4.6,0,0,0,2.5-4c0-1.35-.85-1.79-1.77-1.66l-2.84.43c-2,.28-2.61-1.2-2.61-3.51a10.44,10.44,0,0,1,5-8.22,4.68,4.68,0,0,1,4.22-.32Z" style="fill:#455a64"></path><polygon points="248.29 242.93 220.07 259.22 220.07 278.38 248.29 262.08 248.29 242.93" style="fill:#e0e0e0"></polygon><polygon points="248.29 273.24 157.49 325.66 157.49 320.7 248.29 268.28 248.29 273.24" style="fill:#BA68C8"></polygon><polygon points="186.29 360.56 157.49 377.19 157.49 331.85 186.29 315.23 186.29 360.56" style="fill:#455a64"></polygon><path d="M160.41,335.07a.33.33,0,0,1-.28-.16.32.32,0,0,1,.12-.44l23-13.26a.32.32,0,0,1,.44.12.3.3,0,0,1-.12.43l-23,13.26A.33.33,0,0,1,160.41,335.07Z" style="fill:#fafafa"></path><path d="M160.41,339.09a.33.33,0,0,1-.28-.16.32.32,0,0,1,.12-.44l23-13.26a.32.32,0,0,1,.32.56l-23,13.25A.33.33,0,0,1,160.41,339.09Z" style="fill:#fafafa"></path><path d="M160.41,343.11a.33.33,0,0,1-.28-.16.32.32,0,0,1,.12-.44l23-13.26a.32.32,0,0,1,.32.56l-23,13.25A.33.33,0,0,1,160.41,343.11Z" style="fill:#fafafa"></path><path d="M160.41,347.13a.33.33,0,0,1-.28-.16.32.32,0,0,1,.12-.44l23-13.26a.32.32,0,0,1,.32.56l-23,13.26A.47.47,0,0,1,160.41,347.13Z" style="fill:#fafafa"></path><path d="M160.41,351.15a.33.33,0,0,1-.28-.16.32.32,0,0,1,.12-.44l23-13.26a.32.32,0,0,1,.32.56l-23,13.26A.32.32,0,0,1,160.41,351.15Z" style="fill:#fafafa"></path><path d="M160.41,355.17a.33.33,0,0,1-.28-.16.32.32,0,0,1,.12-.44l23-13.26a.32.32,0,0,1,.32.56l-23,13.26A.32.32,0,0,1,160.41,355.17Z" style="fill:#fafafa"></path><path d="M160.41,359.19a.33.33,0,0,1-.28-.16.32.32,0,0,1,.12-.44l23-13.26a.33.33,0,0,1,.44.12.32.32,0,0,1-.12.44l-23,13.26A.32.32,0,0,1,160.41,359.19Z" style="fill:#fafafa"></path><path d="M160.41,363.21a.33.33,0,0,1-.28-.16.32.32,0,0,1,.12-.44l23-13.26a.33.33,0,0,1,.44.12.32.32,0,0,1-.12.44l-23,13.26A.32.32,0,0,1,160.41,363.21Z" style="fill:#fafafa"></path><path d="M160.41,367.23a.33.33,0,0,1-.28-.16.32.32,0,0,1,.12-.44l23-13.26a.34.34,0,0,1,.44.12.32.32,0,0,1-.12.44l-23,13.26A.32.32,0,0,1,160.41,367.23Z" style="fill:#fafafa"></path><path d="M160.41,371.25a.33.33,0,0,1-.28-.16.32.32,0,0,1,.12-.44l23-13.26a.33.33,0,0,1,.44.12.32.32,0,0,1-.12.44l-23,13.26A.32.32,0,0,1,160.41,371.25Z" style="fill:#fafafa"></path><polygon points="248.29 355.1 192.65 387.21 192.65 311.55 248.29 279.44 248.29 355.1" style="fill:#e0e0e0"></polygon><path d="M196.57,312.83l48.35-27.91c.68-.39,1.24-.07,1.24.71v39.69a2.73,2.73,0,0,1-1.24,2.13l-48.35,27.91c-.68.4-1.23.08-1.23-.71V315A2.74,2.74,0,0,1,196.57,312.83Z" style="fill:#fff"></path><path d="M232.67,307.82l-8.08,14.3,5.68,7.36-18.76-16.16-16.17,35v6.33c0,.79.55,1.11,1.23.71l48.35-27.91a2.73,2.73,0,0,0,1.24-2.13v-5.17Zm5.58-7.51a5.34,5.34,0,0,0,2.42-4.2c0-1.54-1.08-2.17-2.42-1.39a5.35,5.35,0,0,0-2.43,4.19C235.82,300.46,236.91,301.08,238.25,300.31Z" style="fill:#BA68C8"></path><g style="opacity:0.5"><path d="M232.67,307.82l-8.08,14.3,5.68,7.36-18.76-16.16-16.17,35v6.33c0,.79.55,1.11,1.23.71l48.35-27.91a2.73,2.73,0,0,0,1.24-2.13v-5.17Zm5.58-7.51a5.34,5.34,0,0,0,2.42-4.2c0-1.54-1.08-2.17-2.42-1.39a5.35,5.35,0,0,0-2.43,4.19C235.82,300.46,236.91,301.08,238.25,300.31Z" style="fill:#fff"></path></g><polygon points="205.27 357.26 245.97 333.76 245.97 350.05 205.27 373.55 205.27 357.26" style="fill:#fafafa"></polygon><polygon points="201.56 375.69 157.49 401.13 157.49 384.85 201.56 359.41 201.56 375.69" style="fill:#BA68C8"></polygon></g></g></g><g id="freepik--Plants--inject-28"><g id="freepik--plants--inject-28"><path d="M65.84,430.64,56.69,436c1.67-12.35-.24-24.92-4.58-34.58-3.83-8.52-9.88-14.55-12.62-19.28-6-10.27,5.12-17,14.67-10.8,8,5.26,13.73,16.68,14.54,30.48C69.39,413.57,67.12,427.28,65.84,430.64Z" style="fill:#BA68C8"></path><path d="M61.72,430a.38.38,0,0,0,.1,0,.51.51,0,0,0,.57-.44c3.71-29.3-3.75-45.41-13.82-54.58a.52.52,0,0,0-.73,0,.51.51,0,0,0,0,.72c9.94,9,17.16,24.81,13.5,53.69A.51.51,0,0,0,61.72,430Z" style="fill:#fff"></path><path d="M26.63,398.21c-.14,3.41,4.26,5.21,4.47,8.52s-3.28,4.3-4,8.6c-.41,2.65,2.67,5,5.36,5.6,13.11,3,1,15.75,12.75,21.62L60,434c4-3,6.1-9.68,3.53-14.3-1.54-2.78-5.11-3.65-6.54-6.42-1.29-2.47.15-5.54-.45-8.27s-3.13-4-5.58-4.84-5.27-.2-7.58-1.48-4.37-3.07-6.81-4.1C33.16,393,27.22,393.73,26.63,398.21Z" style="fill:#BA68C8"></path><g style="opacity:0.5"><path d="M26.63,398.21c-.14,3.41,4.26,5.21,4.47,8.52s-3.28,4.3-4,8.6c-.41,2.65,2.67,5,5.36,5.6,13.11,3,1,15.75,12.75,21.62L60,434c4-3,6.1-9.68,3.53-14.3-1.54-2.78-5.11-3.65-6.54-6.42-1.29-2.47.15-5.54-.45-8.27s-3.13-4-5.58-4.84-5.27-.2-7.58-1.48-4.37-3.07-6.81-4.1C33.16,393,27.22,393.73,26.63,398.21Z" style="fill:#fff"></path></g><path d="M50.76,414.87a.35.35,0,0,0-.08-.16C45.54,404.37,35.92,398.34,32.55,397a.37.37,0,1,0-.27.68c3.19,1.25,12.13,6.83,17.25,16.38A20.32,20.32,0,0,0,33.27,413a.36.36,0,0,0-.19.48.4.4,0,0,0,.27.22.42.42,0,0,0,.22,0,19.7,19.7,0,0,1,16.55,1.55,31,31,0,0,1,2.56,19.66.36.36,0,0,0,.26.42h0a.37.37,0,0,0,.43-.3A31.59,31.59,0,0,0,50.76,414.87Z" style="fill:#fff"></path></g></g><g id="freepik--Chains--inject-28"><g id="freepik--chains--inject-28"><path d="M50.33,158.5l-3-.44c-2.21-.32-3.7-2.79-3.22-5.46a127.39,127.39,0,0,1,3.53-15.24c.73-2.57,3.14-4.07,5.26-3.39l2.87.92a4.41,4.41,0,0,1,2.55,5.53,117.94,117.94,0,0,0-3.28,14.13C54.62,157,52.53,158.82,50.33,158.5Zm1.6-21.3a1.25,1.25,0,0,0-1.48,1,126.42,126.42,0,0,0-3.46,15,1.28,1.28,0,0,0,.9,1.54l3,.5A1.25,1.25,0,0,0,52.2,154a122.35,122.35,0,0,1,3.34-14.42,1.23,1.23,0,0,0-.73-1.57Z" style="fill:#e0e0e0"></path><path d="M52.34,141.26a1.57,1.57,0,0,1-1-2,122.84,122.84,0,0,1,6.73-19,1.46,1.46,0,1,1,2.66,1.16A122.54,122.54,0,0,0,54.18,140,1.58,1.58,0,0,1,52.34,141.26Z" style="fill:#e0e0e0"></path><path d="M59.26,125.24l-2.79-1.12c-2.07-.83-3-3.5-1.92-5.91a126.25,126.25,0,0,1,6.76-13.58c1.28-2.27,3.94-3.14,5.85-2l2.57,1.56A4.32,4.32,0,0,1,71,110.06a118.3,118.3,0,0,0-6.28,12.6A4.36,4.36,0,0,1,59.26,125.24Zm6.23-19.76a1.23,1.23,0,0,0-1.64.57,123.49,123.49,0,0,0-6.64,13.33,1.25,1.25,0,0,0,.53,1.66l2.77,1.18a1.23,1.23,0,0,0,1.55-.72,120.28,120.28,0,0,1,6.4-12.86A1.21,1.21,0,0,0,68.1,107Z" style="fill:#e0e0e0"></path><path d="M65,109.44a1.55,1.55,0,0,1-.49-2.14A124.2,124.2,0,0,1,75.19,90.76a1.46,1.46,0,1,1,2.33,1.73,121.6,121.6,0,0,0-10.46,16.22A1.57,1.57,0,0,1,65,109.44Z" style="fill:#e0e0e0"></path><path d="M74.76,96.43c-1-.68-1.49-1-2.47-1.71a4.31,4.31,0,0,1-.61-6.12A127.18,127.18,0,0,1,81.16,77a4.31,4.31,0,0,1,6.11-.62l2.17,2.09a4.29,4.29,0,0,1,0,6A119.36,119.36,0,0,0,80.62,95.2,4.33,4.33,0,0,1,74.76,96.43ZM85,78.78a1.22,1.22,0,0,0-1.71.18A125.53,125.53,0,0,0,74,90.33a1.23,1.23,0,0,0,.16,1.72l2.44,1.77a1.21,1.21,0,0,0,1.66-.35,122.72,122.72,0,0,1,9-11,1.21,1.21,0,0,0,0-1.69Z" style="fill:#e0e0e0"></path><path d="M83.72,82.5a1.53,1.53,0,0,1,0-2.18A125.92,125.92,0,0,1,97.64,66.64a1.46,1.46,0,1,1,1.9,2.2A122,122,0,0,0,85.87,82.26,1.55,1.55,0,0,1,83.72,82.5Z" style="fill:#e0e0e0"></path><path d="M112.55,58.87c-.67-1-1-1.49-1.69-2.49a4.29,4.29,0,0,1,1.62-5.91,127.76,127.76,0,0,1,13-7.4,4.29,4.29,0,0,1,5.91,1.62c.52,1.09.77,1.63,1.28,2.72A4.32,4.32,0,0,1,130.48,53a118.19,118.19,0,0,0-12,6.86A4.32,4.32,0,0,1,112.55,58.87Zm15.89-12.76a1.23,1.23,0,0,0-1.67-.45A125.85,125.85,0,0,0,114,52.92a1.21,1.21,0,0,0-.46,1.66l1.63,2.52a1.21,1.21,0,0,0,1.67.28,121.86,121.86,0,0,1,12.28-7,1.2,1.2,0,0,0,.61-1.58Z" style="fill:#e0e0e0"></path><path d="M125.87,49.11a1.54,1.54,0,0,1,.76-2,124.5,124.5,0,0,1,18-7.78,1.46,1.46,0,1,1,1,2.73A122.41,122.41,0,0,0,128,49.66,1.54,1.54,0,0,1,125.87,49.11Z" style="fill:#e0e0e0"></path><path d="M141.84,43.48c-.43-1.12-.65-1.69-1.09-2.81a4.31,4.31,0,0,1,2.93-5.41A127.42,127.42,0,0,1,158.11,31c2.52-.62,5,.72,5.45,2.9l.63,2.95a4.34,4.34,0,0,1-3.43,4.93,117.78,117.78,0,0,0-13.38,4A4.31,4.31,0,0,1,141.84,43.48Zm18.5-8.9a1.24,1.24,0,0,0-1.54-.81A126.63,126.63,0,0,0,144.65,38a1.22,1.22,0,0,0-.83,1.52l1,2.83a1.22,1.22,0,0,0,1.57.65,120,120,0,0,1,13.66-4.09,1.21,1.21,0,0,0,1-1.4C160.76,36.34,160.62,35.75,160.34,34.58Z" style="fill:#e0e0e0"></path><path d="M157.12,36.93a1.56,1.56,0,0,1,1.23-1.82,123.52,123.52,0,0,1,19.55-3.54,1.47,1.47,0,1,1,.32,2.89,121.4,121.4,0,0,0-19.17,3.47A1.55,1.55,0,0,1,157.12,36.93Z" style="fill:#e0e0e0"></path><path d="M173.37,35.14c-.17-1.19-.26-1.78-.43-3-.33-2.21,1.52-4.33,4.13-4.63a126,126,0,0,1,15.35-1c2.66,0,4.82,1.83,4.78,4.06l0,3a4.4,4.4,0,0,1-4.57,4,117.8,117.8,0,0,0-14.23.92A4.36,4.36,0,0,1,173.37,35.14Zm20.44-4.55a1.26,1.26,0,0,0-1.35-1.14,127.21,127.21,0,0,0-15.05,1,1.25,1.25,0,0,0-1.18,1.3c.15,1.19.23,1.79.38,3a1.21,1.21,0,0,0,1.4,1,120.72,120.72,0,0,1,14.53-.93,1.24,1.24,0,0,0,1.29-1.15C193.82,32.39,193.82,31.79,193.81,30.59Z" style="fill:#e0e0e0"></path><path d="M190.06,32.16a1.57,1.57,0,0,1,1.64-1.5,124.68,124.68,0,0,1,20.44,1,1.47,1.47,0,1,1-.34,2.88,122,122,0,0,0-20-1A1.58,1.58,0,0,1,190.06,32.16Z" style="fill:#e0e0e0"></path><path d="M98.86,53.44a.66.66,0,0,1,.24-.71.66.66,0,0,1,.92.13l2.63,3.49a.67.67,0,0,1-.13.93.66.66,0,0,1-.92-.13L99,53.66A.65.65,0,0,1,98.86,53.44Z" style="fill:#e0e0e0"></path><path d="M95.67,59.57a.78.78,0,0,1,0-.27.65.65,0,0,1,.74-.56l4.39.59a.66.66,0,0,1,.56.75.65.65,0,0,1-.74.56l-4.38-.59A.67.67,0,0,1,95.67,59.57Z" style="fill:#e0e0e0"></path><path d="M105.61,56.2a.88.88,0,0,1,0-.17l0-4.54a.65.65,0,0,1,.65-.67.67.67,0,0,1,.67.65l0,4.54a.66.66,0,0,1-1.3.19Z" style="fill:#e0e0e0"></path><path d="M108.87,66.77a.66.66,0,0,1,1.21-.5L112,69.7a.67.67,0,0,1-.26.9.66.66,0,0,1-.9-.25l-1.91-3.44A.42.42,0,0,1,108.87,66.77Z" style="fill:#e0e0e0"></path><path d="M110.74,63.76a.63.63,0,0,1,0-.36.66.66,0,0,1,.81-.46L115.41,64a.66.66,0,0,1,.46.82.67.67,0,0,1-.81.46l-3.86-1.09A.65.65,0,0,1,110.74,63.76Z" style="fill:#e0e0e0"></path><path d="M104.17,71a.8.8,0,0,1,0-.27l.52-4a.65.65,0,0,1,.74-.57.67.67,0,0,1,.57.74l-.52,4a.66.66,0,0,1-1.29.1Z" style="fill:#e0e0e0"></path></g></g><g id="freepik--character-2--inject-28"><g id="freepik--Character--inject-28"><g id="freepik--Bottom--inject-28"><path d="M441.71,402.38c-.17-5.89.85-53.74.85-53.74l-23.35,14.54c3.72,26.24,6.76,38.61,7.15,43.15h0a6,6,0,0,1,.16.93c.08,5.2,6.32,7.94,11.21,11.36a91.39,91.39,0,0,0,13.19,7.94c3.53,1.64,10.68,1.71,11.54-.43-5.94-4.19-12.81-8.77-17.56-13.58C442.64,410.25,441.87,407.85,441.71,402.38Z" style="fill:#c8856a"></path><path d="M472.57,431.62c.31,0,.8,3.14-.83,4.49-1.88,1.57-7.41,4.16-14.77,3.33s-11.36-2.93-14.32-5.22-7.13-5.54-10.46-6.2c-3.1-.61-6.47-1.9-7.46-2.79s-.91-4.9-.91-4.9Z" style="fill:#263238"></path><path d="M426.16,404.94s-.51-.05-.69.88c-.21,1.11-.42,4.32-.88,6.14a30.81,30.81,0,0,0-.62,9.75c.43,2.05,5.48,3.42,8.71,4.55a41.48,41.48,0,0,1,10.49,6.11c3.49,2.66,10.78,5.28,15.57,5.3,7.31,0,12-1.89,13.46-4.39,1.78-3.09.34-4.86-8.11-8.45-1.6-.68-7.22-3.75-9.13-4.86a27.87,27.87,0,0,1-11.88-12.48,3.05,3.05,0,0,0-1.22-1.65,2.85,2.85,0,0,0-1.64-.12,20.81,20.81,0,0,0-4.93,1c-1.12.52-2.71,1.13-2.67,2.49a4.21,4.21,0,0,0,.33,1.39c.1.27.19.64-.07.81s-.57,0-.79-.2a20.53,20.53,0,0,1-2.29-2.55,7.7,7.7,0,0,0-1.35-1.26,13.76,13.76,0,0,1-1.44-.87A2.69,2.69,0,0,1,426.16,404.94Z" style="fill:#37474f"></path><path d="M465.46,425.42c-10.58.8-13.85,7-14.25,10.84a26.32,26.32,0,0,0,7.53,1.41c7.31,0,12.33-1.89,13.76-4.39C474.18,430.36,473,428,465.46,425.42Z" style="fill:#fafafa"></path><path d="M449.59,425.68a.5.5,0,0,1-.33-.1.48.48,0,0,1-.08-.69,12.79,12.79,0,0,1,9.53-3.66.49.49,0,0,1,.46.53.5.5,0,0,1-.56.44,11.87,11.87,0,0,0-8.62,3.3A.52.52,0,0,1,449.59,425.68Z" style="fill:#f0f0f0"></path><path d="M445,423.22a.52.52,0,0,1-.33-.11.46.46,0,0,1-.08-.68,12.81,12.81,0,0,1,9.53-3.67.5.5,0,0,1,.47.54.51.51,0,0,1-.57.44,11.81,11.81,0,0,0-8.62,3.3A.52.52,0,0,1,445,423.22Z" style="fill:#f0f0f0"></path><path d="M440.74,420.4a.54.54,0,0,1-.32-.11.47.47,0,0,1-.08-.69,12.8,12.8,0,0,1,9.53-3.66.49.49,0,1,1-.1,1,11.93,11.93,0,0,0-8.63,3.3A.51.51,0,0,1,440.74,420.4Z" style="fill:#f0f0f0"></path><path d="M436.57,417.57a.55.55,0,0,1-.32-.1.48.48,0,0,1-.09-.69c2-2.44,6.56-4.07,10.41-3.72a.51.51,0,0,1,.47.54.53.53,0,0,1-.57.44c-3.46-.32-7.72,1.18-9.49,3.34A.5.5,0,0,1,436.57,417.57Z" style="fill:#f0f0f0"></path><path d="M392.06,376.94l-22.35-2.51c-1.17,14.16-.46,30.07-1.49,43.36-.19,2.5-2.13,19.38-1.68,24.61.68,7.86,10.48,7.73,11.48,3.17s3.44-24.51,3.69-26.54c.82-8.51,5.09-22.35,8.93-37.4C390.82,380.89,391.88,377.67,392.06,376.94Z" style="fill:#c8856a"></path><path d="M381.33,449.13c-.28,4.55-1,7.57-2.74,10.24s-4.93,3.5-8.2,2.72-7.44-2.87-8.38-6.8-.75-6.61,0-10.83Z" style="fill:#263238"></path><path d="M368.34,416.16c-1.35.1-1.74,6.22-2.52,12.34-.83,6.56-2.9,9.27-3.65,14.65-.85,6.14-.5,8.89,1.77,12.6s10.35,7.36,14.32,2c3.24-4.34,3.38-9.15,3.08-15.28a128.83,128.83,0,0,1,.44-15.55c.26-4.6,1.34-9.24.17-9.75-.09.67-.18,1.53-.28,2.19s-.2,3-1,3a9.19,9.19,0,0,1,0-1.74,2,2,0,0,0-.37-1.48,2.58,2.58,0,0,0-1.49-.63c-1.33-.25-4.14-.36-5.48-.47a19.38,19.38,0,0,0-2-.08,5.45,5.45,0,0,0-1.7.23,1.17,1.17,0,0,0-.73.62,1.84,1.84,0,0,0-.07.7,4.85,4.85,0,0,1-.17,1.26c-.05.18-.18.41-.37.36s-.22-.22-.22-.37c0-.74.09-1.28.13-2.14,0-.4.08-.95.09-1.35S368.31,416.56,368.34,416.16Z" style="fill:#37474f"></path><path d="M361.8,446.71c-.23,3.81,0,6.43,1.78,9.33,2.28,3.72,11,7.38,15,2,2-2.64,2.51-5.77,2.78-9C379,445,365.56,443.22,361.8,446.71Z" style="fill:#fafafa"></path><path d="M377.88,442.44a.53.53,0,0,1-.17,0,20.65,20.65,0,0,0-11.6-1.13.51.51,0,0,1-.6-.36.47.47,0,0,1,.37-.56,21.33,21.33,0,0,1,12.26,1.2.46.46,0,0,1,.24.63A.51.51,0,0,1,377.88,442.44Z" style="fill:#f0f0f0"></path><path d="M366.43,436.69a.52.52,0,0,1-.42-.32.47.47,0,0,1,.31-.6c6-1.93,12,1,12.25,1.09a.46.46,0,0,1,.21.64.54.54,0,0,1-.68.2c-.05,0-5.84-2.84-11.46-1A.75.75,0,0,1,366.43,436.69Z" style="fill:#f0f0f0"></path><path d="M366.78,432.37a.49.49,0,0,1-.42-.31.46.46,0,0,1,.3-.6,16.25,16.25,0,0,1,12.49,1.05.46.46,0,0,1,.17.65.52.52,0,0,1-.69.16,15.49,15.49,0,0,0-11.63-1A.42.42,0,0,1,366.78,432.37Z" style="fill:#f0f0f0"></path><path d="M367.19,427.52a.5.5,0,0,1-.42-.31.46.46,0,0,1,.29-.6c6.22-2.2,12.33,1,12.58,1.19a.46.46,0,0,1,.19.64.5.5,0,0,1-.68.17c-.06,0-6-3.16-11.74-1.12A.42.42,0,0,1,367.19,427.52Z" style="fill:#ebebeb"></path><path d="M386.54,218.92a10.73,10.73,0,0,1-2.16,5.17c-5.92,8.3-10.55,16.29-11,31.35-1.18,37.28-.27,75.89-.27,75.89-.25,3.29-3,9.11-4.3,26.14-1.11,14.91-.72,35.33-.72,35.33s10.82,5.08,20.13,1.5c3.7-12.11,11.4-43.55,15.44-59.78,3.67-14.73,6.11-36.39,6.11-36.39l6.44,30a87.33,87.33,0,0,0,.25,19.41c1.19,10,5.76,38.56,5.76,38.56s11.91,3.5,19.91-2.1c0,0,2-49.81,2.09-61.88.16-22.45.43-64.2-7.29-96.86-.32-1.34-1.2-6.77-1.2-6.77C427.88,225.06,397.05,225.92,386.54,218.92Z" style="fill:#263238"></path><path d="M399,229.47a.44.44,0,0,0-.52.31c-.43,1.73-.77,3.29-1.09,4.8-1.15,5.45-2,9.38-6.11,13.61a14.36,14.36,0,0,1-10.37,4.11c1.78-11.15,5.55-20.05,11.55-27.4a.4.4,0,0,0-.08-.58.45.45,0,0,0-.61.07c-6.18,7.56-10,16.72-11.8,28.21,0,0,0,0,0,.05s0,0,0,0a103.25,103.25,0,0,0-1.13,13.85c-.38,21-1,52.65-1.28,61-.17,4.45-1.17,8.32-2.44,13.21-1.09,4.22-2.33,9-3.43,15.55-2.38,14.16-1.17,37.43-1.15,37.66a.43.43,0,0,0,.43.4h0a.43.43,0,0,0,.41-.44c0-.23-1.22-23.41,1.15-37.49,1.09-6.51,2.32-11.28,3.41-15.48,1.28-4.94,2.29-8.84,2.47-13.38.31-8.33.89-40,1.28-61a104.22,104.22,0,0,1,1.06-13.42h.46a15.06,15.06,0,0,0,10.69-4.39c4.29-4.4,5.15-8.43,6.33-14,.32-1.5.65-3.05,1.08-4.77A.41.41,0,0,0,399,229.47Z" style="fill:#455a64"></path><path d="M368,388.2c3.19,3,16.53,4.59,21.41,2l-2.05,8s-3.17,2-10.26,1.32c-8.22-.74-9.1-3.36-9.1-3.36Z" style="fill:#455a64"></path><path d="M421.51,381.79c4.23,1.4,16.17.53,20.78-2.33l-.2,6.67s-2.59,2.5-9.67,3.25-9.95-1.18-9.95-1.18Z" style="fill:#455a64"></path><path d="M409.75,298.13l4.63-36.81a23.26,23.26,0,0,0,18.58-9s.31,9.2-14.82,13.43l-5.53,33.93,3.58,28.44Z"></path></g><g id="freepik--Top--inject-28"><path d="M401.88,106.68a16.42,16.42,0,0,0-14.23-.22c-6.11,3.15-7.27,6.57-7.87,13.77-.91,10.79-1.68,14-3,16.5a9.07,9.07,0,0,1-5.38,4.5,6.34,6.34,0,0,0,6.12.31c-1.13,5.18-2.69,9.54-1.39,15,.87,3.71,2.76,7.92,5.59,10.6,2.4,2.28,5.87,3,8.78,4.3-1.93-4.24-2.95-8.24-1.55-13,1.55-5.22,5.11-9.65,6.71-14.92,2.23-7.29,4.77-14.83,5.45-22.45A142.65,142.65,0,0,0,401.88,106.68Z" style="fill:#263238"></path><path d="M402.88,106.21c-.67-1.11-4.89-1.68-8.15.57s-5.9,6.1-3.55,9.2C393.39,118.89,407.38,110.5,402.88,106.21Z" style="fill:#BA68C8"></path><path d="M447.45,72c1.48-4.18,2.91-4.76,4.2-4.29a2.55,2.55,0,0,1,1.81,3.08,2,2,0,0,1,2.89-.76c1.27.74,1.08,2.73,1.08,2.73a2,2,0,0,1,2.64-.29A2.64,2.64,0,0,1,461.2,75s.92-.86,2.12.3a4.39,4.39,0,0,1,1.33,3.46l-1.22-.49a2.86,2.86,0,0,1-.77,1,8.52,8.52,0,0,0-1.34,3.1c-.38,1.17-.65,2.59-1.79,2.87a1.61,1.61,0,0,1-2.12-1.08,4.71,4.71,0,0,1,.07-1.48s-.63,1.73-2.21,1.47-1.56-1.68-1.62-2.6c-.92.37-1.89.62-2.39-.09s-.48-3.78-.48-3.78l-2.55-.51a3,3,0,0,1-1.46-2.64A6.75,6.75,0,0,1,447.45,72Z" style="fill:#c8856a"></path><path d="M460.21,84.84a2.1,2.1,0,0,1-1.57.73c-.93,0-1.16-2.86-1.16-2.86S456.25,84.19,455,84s-1.42-1.79-1.58-2.84c-1.05.88-1.54.71-2.17.12s-.51-3.44-.51-3.44a2.83,2.83,0,0,0,1.72-.22c1-.43,1-1.85,1-1.85l-4.36-3.15a6.28,6.28,0,0,0-2.6.21,5.63,5.63,0,0,0-2.82,1.72c-.46.73-1.2,4.76-1.45,8.67a8.32,8.32,0,0,0,1.79,6.43c1.6,2.07,2.15,4.85,2.18,9.41s1.15,31.83,1.15,31.83-12.7,20.19-15.83,23.08-6,4.21-8.47,6.44l16.28,19.39c.89-3.66,2.45-5.88,5.38-10.22,8.68-12.87,12.41-19.05,14.14-21.79,6.53-10.37,6.71-11,5.95-17.5-1.54-13.09-3.33-26-3.88-31.35-.42-4,.16-5.7.8-7.18,2-4.58,2.41-9.42,2.87-13L462,76.84Z" style="fill:#c8856a"></path><path d="M422.7,160.23c1.52-1.52,6-4.45,7.86-6s7.13-9,11.09-15.09,5.46-8.2,5.46-8.2L446.52,108a24.62,24.62,0,0,0,8.36,1.32,15.43,15.43,0,0,0,7.16-1.62s2.56,15.45,3.38,22.37.52,7.21-2.87,12.72c-4.22,6.87-19.23,29.72-20.73,32.77a23,23,0,0,0-1.91,6.36Z" style="fill:#37474f"></path><path d="M446.07,79.14a18.55,18.55,0,0,1,4.87,3.1,20.13,20.13,0,0,1,4.33,5.89,12.52,12.52,0,0,0-2.91-5.78,1.71,1.71,0,0,0,.93-.35c0,1.32.2,2.57,1.86,2.6a2.1,2.1,0,0,0,1.93-.87,1.85,1.85,0,0,0,1,1.77,1.67,1.67,0,0,0,2.16-.45,1.82,1.82,0,0,0,.24-.43.13.13,0,0,0,0-.08s0,0-.05,0l-.19.17a1.92,1.92,0,0,1-1.67.56,1.56,1.56,0,0,1-.75-1.12,6.75,6.75,0,0,1,.05-2.15.09.09,0,0,0,0-.09c0-.06-.14,0-.19.05-.29.31-.49.7-.76,1a1.74,1.74,0,0,1-1.48.69c-1.18,0-1.45-1.48-1.41-2.43,0-.32,0-.63,0-1,0,0,0-.1-.06-.1l0,0a1.52,1.52,0,0,0-.4.47,2.92,2.92,0,0,1-.43.5,1.42,1.42,0,0,1-.75.4c-.63.1-.89-.47-1.1-1a5,5,0,0,1-.34-2.53V78l.22,0c2.29.33,3.1-1.91,2.38-2.49s-3.8-3-4.59-3.09a5.84,5.84,0,0,0-2.42.39l2.3-.08s4.42,2.91,4.36,3.43a1.63,1.63,0,0,1-1.73,1.35,14.3,14.3,0,0,1-3.34-.67C448.05,77.77,446.07,79.14,446.07,79.14Zm1.4-.81a1.8,1.8,0,0,0,.79-.8s.54.14,2.29.4a9.17,9.17,0,0,0-.45,1.13,1.94,1.94,0,0,1-.35.57l-.15.12A15.77,15.77,0,0,0,447.47,78.33Z" style="fill:#af6152"></path><path d="M437.77,202.14c-.86,7.11-1.49,15.51-1.49,15.51,2.7,14.12,4.47,26.89,4.47,26.89-24.3,13-61.09,3.52-65.7-1.82,2.28-12,9.72-22.89,8.37-29.33l-5.86-24.48s11.2-5.72,10.25-23.41c0,0,10.17-1.43,16.69-2.06,11.62-1.14,13.64-1.94,18.2-3.21,3.9,2.13,11.82,10.67,16.46,18.17S445.09,194.46,437.77,202.14Z" style="fill:#BA68C8"></path><path d="M419.1,201.51s-6.34,5.61-14.13,3.39a13,13,0,0,1-9.33-8.8s-.25,8.76,9.54,11.12A12.63,12.63,0,0,0,419.1,201.51Z" style="opacity:0.1"></path><g id="freepik--Head--inject-28"><g id="freepik--head--inject-28"><path d="M431,129.39c4.32-17.53-11.95-26.07-27.87-22.89-5.24,1-12,4.22-12.52,11.74-6.91,2.34-10,11.73-5.51,21.57,3.29,7.13,9.59,10.58,12.52,14.94Z" style="fill:#263238"></path><path d="M390.64,132c4.42-2,6.78,2.58,6.78,2.58,2.95,1.74,4.49-4.13,5.09-5.9,1-3.09,2-7.48,5.36-8.83,2.5-1,5.37-.14,7.72,1.2a5.88,5.88,0,0,0,4.64.5c1.37-.41,1.76-2.58,3-3.29,3.59-2,6.55,3.88,7.11,6.73a58.67,58.67,0,0,1,1.11,11.57c0,13-2.63,17.47-6.37,19.61-2.17,1.25-4.89,1.63-9.24,1.37l.5,5.89a28.61,28.61,0,0,1,5.48,14.22c-9.63-2.93-17.93-7.16-24.05-12.73L396,145.74c-.78,1.72-4,2-6.47-1C386.39,140.88,386.4,134,390.64,132Z" style="fill:#c8856a"></path><path d="M415.84,157.52c-2.59-.34-7.25-1-10.78-2.77a10.08,10.08,0,0,1-4.53-4.46s.15,3.27,4.2,6.19c3.71,2.68,11.3,3.27,11.3,3.27Z" style="fill:#af6152"></path></g><polygon points="418.02 132.27 419.51 143.49 425.63 140.45 418.02 132.27" style="fill:#af6152"></polygon><path d="M414,134.51a1.84,1.84,0,1,1-2.05-1.69A1.87,1.87,0,0,1,414,134.51Z" style="fill:#263238"></path><path d="M412.12,129l-4.45,2.5a2.66,2.66,0,0,1,1-3.56A2.49,2.49,0,0,1,412.12,129Z" style="fill:#263238"></path><path d="M414.09,145.14l6.15,1.54a3.12,3.12,0,0,1-3.79,2.39A3.3,3.3,0,0,1,414.09,145.14Z" style="fill:#af6152"></path><path d="M416.11,146.75a2.87,2.87,0,0,0-2-.17,3.23,3.23,0,0,0,2.35,2.49,3,3,0,0,0,1.29,0A2.85,2.85,0,0,0,416.11,146.75Z" style="fill:#f28f8f"></path><path d="M427.5,128.75l-4.8-1.41a2.42,2.42,0,0,1,3.05-1.66A2.54,2.54,0,0,1,427.5,128.75Z" style="fill:#263238"></path><path d="M427,132.74a1.86,1.86,0,1,1-2.06-1.7A1.88,1.88,0,0,1,427,132.74Z" style="fill:#263238"></path><path d="M395,132.88l-6.68-.21s-1.12-6.6-1.48-10.54c-.07-.76-.11-1.43-.11-1.93v-.66c0-2.79.31-5.31,3.32-7.66a18.28,18.28,0,0,1,7.15-3.29,17.52,17.52,0,0,0-3.2,2.31,7.84,7.84,0,0,0-1.95,4,7.4,7.4,0,0,0-.09,1.6c0,.72.11,1.57.23,2.51C392.91,124.58,395,132.88,395,132.88Z" style="fill:#455a64"></path><path d="M397.84,144.5a15.68,15.68,0,0,0-2.32-14,6.61,6.61,0,0,0-2.74-2.1,4,4,0,0,0-2.09-.22l-2.36.39c-1.6.27-3,1.6-3.8,3.76a15.66,15.66,0,0,0,2.32,14,6.68,6.68,0,0,0,2.74,2.1,4,4,0,0,0,2.11.22l2.32-.38C395.63,148,397,146.66,397.84,144.5Z" style="fill:#37474f"></path><path d="M389.59,148.42a6.68,6.68,0,0,1-2.74-2.1,15.66,15.66,0,0,1-2.32-14c1.15-3.07,3.47-4.45,5.91-3.54a6.68,6.68,0,0,1,2.74,2.1,15.66,15.66,0,0,1,2.32,14C394.35,148,392,149.34,389.59,148.42Z" style="fill:#263238"></path><path d="M395,144.71a15.12,15.12,0,0,0-2.24-13.49c-1.39-1.68-3-2.38-4.36-2.14l-1.16.19c-1.41.23-2.67,1.4-3.44,3.44a15.09,15.09,0,0,0,2.24,13.48c1.38,1.69,2.95,2.38,4.36,2.15l1.17-.2C393,147.91,394.26,146.75,395,144.71Z" style="fill:#f0f0f0"></path><path d="M391.62,131.42a15.09,15.09,0,0,1,2.24,13.48c-1.54,4.08-5,4.66-7.79,1.29a15.09,15.09,0,0,1-2.24-13.48C385.36,128.63,388.85,128.05,391.62,131.42Z" style="fill:#e0e0e0"></path><path d="M393.86,144.9a15.09,15.09,0,0,0-2.24-13.48c-1.38-1.69-2.95-2.38-4.35-2.15-.4.06-1.12.23-1.52.3-1.4.24-2.66,1.4-3.42,3.44a15.1,15.1,0,0,0,2.24,13.48c1.38,1.68,2.94,2.38,4.35,2.15.39-.07,1.11-.24,1.51-.3C391.84,148.1,393.09,146.94,393.86,144.9Z" style="fill:#BA68C8"></path><path d="M390.11,131.71a15.12,15.12,0,0,1,2.24,13.49c-1.53,4.08-5,4.66-7.78,1.29A15.1,15.1,0,0,1,382.33,133C383.86,128.93,387.35,128.35,390.11,131.71Z" style="fill:#fff;opacity:0.15"></path><path d="M387.94,135.5a7.94,7.94,0,0,1,1.18,7.09c-.81,2.14-2.64,2.44-4.09.67a7.92,7.92,0,0,1-1.18-7.08C384.66,134,386.49,133.73,387.94,135.5Z" style="fill:#263238"></path><path d="M389,138.17l-2.74,1.24-.83-5a2.5,2.5,0,0,1,2.29,1.12A7,7,0,0,1,389,138.17Z" style="fill:#455a64"></path><path d="M388.94,142.62a2.52,2.52,0,0,1-1.8,1.8l-.84-5,2.74-1.24A7.79,7.79,0,0,1,388.94,142.62Z" style="fill:#37474f"></path><path d="M387.14,144.42a2.51,2.51,0,0,1-2.29-1.13,6.78,6.78,0,0,1-1.28-2.64l2.73-1.24Z" style="fill:#455a64"></path><path d="M386.3,139.41l-2.73,1.24a7.76,7.76,0,0,1,.1-4.44,2.52,2.52,0,0,1,1.8-1.8Z" style="fill:#37474f"></path><path d="M431.28,142a22.47,22.47,0,0,1,4.21,2.89,4.08,4.08,0,0,1,.49,5.68L434.3,150s1.23-1.88.36-3.14-3.59-2.61-3.59-2.61C431.16,143.52,431.22,142.78,431.28,142Z"></path><path d="M435.44,149.34c-1.29-.91-2.11-.14-3.5,2.08s-.81,3,.32,3.66,2.19,0,3.26-1.82C436.72,151.18,436.84,150.33,435.44,149.34Z" style="fill:#BA68C8"></path><path d="M435.44,149.34c-1.29-.91-2.11-.14-3.5,2.08s-.81,3,.32,3.66,2.19,0,3.26-1.82C436.72,151.18,436.84,150.33,435.44,149.34Z" style="opacity:0.1"></path></g><g id="freepik--video-camera--inject-28"><path d="M317.11,292.38a3.67,3.67,0,0,0-3.7.35,11.58,11.58,0,0,0-5.26,9.07,3.7,3.7,0,0,0,1.47,3.36c.31.19,4,2.08,4.3,2.25a3.69,3.69,0,0,0,3.71-.35,11.63,11.63,0,0,0,5.26-9.07,3.69,3.69,0,0,0-1.5-3.37C321.09,294.44,317.4,292.55,317.11,292.38Z" style="fill:#455a64"></path><path d="M308.76,304.28a.55.55,0,0,0,.09.14l-.1-.15h0Z" style="fill:#455a64"></path><path d="M312.39,304c0,3.34,2.34,4.7,5.24,3a11.63,11.63,0,0,0,5.26-9.07c0-3.35-2.34-4.71-5.24-3A11.6,11.6,0,0,0,312.39,304Z" style="fill:#263238"></path><path d="M313.79,307.34l-.05,0,0,0-.09-.05-.07,0-.16-.09a3.69,3.69,0,0,0-.35-.19c-.42-.23-2.53-1.27-2.89-1.47l-.29-.16-.23-.14a2,2,0,0,1-.33-.24l-.14-.13a2.62,2.62,0,0,1-.22-.25.76.76,0,0,1-.08-.11.55.55,0,0,1-.09-.14h0a4.52,4.52,0,0,1-.6-2.47,9.53,9.53,0,0,1,.72-3.46c.05-.15.12-.29.18-.44s.09-.21.15-.32l.15-.32h0l4.22,2.28a10.33,10.33,0,0,0-1.18,4.49,4.75,4.75,0,0,0,.58,2.45A2.85,2.85,0,0,0,313.79,307.34Z" style="opacity:0.15"></path><path d="M340.5,310a7.85,7.85,0,0,1-3.57,6.16,3.11,3.11,0,0,1-1.59.48,1.87,1.87,0,0,1-.92-.23h0L316,306l-.05,0a1.39,1.39,0,0,1-.27-.21,2.72,2.72,0,0,1-.74-2.08,7.85,7.85,0,0,1,3.57-6.16,2.74,2.74,0,0,1,2.17-.39,1.26,1.26,0,0,1,.29.12h0l.1.06,18.33,10.37h0A2.46,2.46,0,0,1,340.5,310Z" style="fill:#37474f"></path><path d="M332.94,311.19a6.85,6.85,0,0,0-.52,2.48,3.39,3.39,0,0,0,.43,1.78l-2.37-1.37-.05,0h0l-13-7.31-.06,0h0l-1.26-.74h0a2.53,2.53,0,0,1-1-2.3,6.7,6.7,0,0,1,.48-2.34Z" style="opacity:0.15"></path><path d="M396.94,288.6h0a.85.85,0,0,0-.5-.69l-42.83-24.73a2.69,2.69,0,0,0-2.41,0l-27,15.58a.87.87,0,0,0-.5.7h0v10.45a.85.85,0,0,0,.5.69L367,315.33a2.63,2.63,0,0,0,2.41,0l27-15.58a.87.87,0,0,0,.5-.7h0v-4.82l.19-.11a1.22,1.22,0,0,1-.19-.7Zm-3.82,2.61Zm-65.6-9.14Z" style="fill:#37474f"></path><path d="M324.2,280.16,367,304.88a2.63,2.63,0,0,0,2.41,0l27-15.58a.74.74,0,0,0,0-1.39l-42.83-24.73a2.69,2.69,0,0,0-2.41,0l-27,15.58A.74.74,0,0,0,324.2,280.16Z" style="fill:#455a64"></path><path d="M367,304.88,324.2,280.16a.86.86,0,0,1-.49-.7v10.45a.86.86,0,0,0,.49.7L367,315.33a2.49,2.49,0,0,0,1.21.29V305.17A2.38,2.38,0,0,1,367,304.88Z" style="fill:#263238"></path><path d="M406,300.85v28.56a2.68,2.68,0,0,1-1.21,2.08l-26.29,15.18a2.69,2.69,0,0,1-2.41,0l-.74-.43-1.61-.92v-.38l-1.94-1.11-.31.18h0l-1.61-.93-.32-.18h0l-.09-.05a2.59,2.59,0,0,1-1.06-1.36,1,1,0,0,1-.05-.16,1.62,1.62,0,0,1-.09-.57V310.8l.19-.1,28.7-16.58a1.29,1.29,0,0,0,.5.51l7.15,4.13A2.68,2.68,0,0,1,406,300.85Z" style="fill:#455a64"></path><path d="M378.49,346.67a2.37,2.37,0,0,1-2.41,0l-.74-.43-1.61-.92v-.38l-1.94-1.11-.31.18h0l-1.61-.93-.32-.18h0a2.59,2.59,0,0,1-.76-.67,2.29,2.29,0,0,1-.39-.74,1,1,0,0,1-.05-.16,2.23,2.23,0,0,1-.09-.68l-.12-35.47.12,4.83a1.32,1.32,0,0,0,.19.7,1.33,1.33,0,0,0,.5.5l8.71,5a2.32,2.32,0,0,0-.35,1.19V346Z" style="fill:#263238"></path><path d="M329.88,318.69a2.65,2.65,0,0,1-1.2-2.08V306.25l41.82,24.14v11.76Z" style="fill:#263238"></path><path d="M404.78,300.15l-26.29,15.18a2.67,2.67,0,0,0-1.2,2.09V346c0,.77.54,1.09,1.21.7l26.29-15.18A2.65,2.65,0,0,0,406,329.4V300.85C406,300.08,405.45,299.77,404.78,300.15Z" style="fill:#37474f"></path><path d="M328.65,291.87a2.58,2.58,0,0,0-1.13,2v15.5a2.67,2.67,0,0,0,1.21,2.09l36,20.81a2.49,2.49,0,0,0,2.34,0,2.75,2.75,0,0,0,1.13-2.1V314.75a2.67,2.67,0,0,0-1.21-2.09l-36-20.75A2.61,2.61,0,0,0,328.65,291.87Z" style="fill:#BA68C8"></path><path d="M328.65,291.87a2.58,2.58,0,0,0-1.13,2v15.5a2.67,2.67,0,0,0,1.21,2.09l36,20.81a2.49,2.49,0,0,0,2.34,0,2.75,2.75,0,0,0,1.13-2.1V314.75a2.67,2.67,0,0,0-1.21-2.09l-36-20.75A2.61,2.61,0,0,0,328.65,291.87Z" style="opacity:0.2"></path><path d="M328.73,293.22l36,20.8a2.67,2.67,0,0,1,1.21,2.09v15.5c0,.77-.54,1.08-1.21.7l-36-20.81a2.67,2.67,0,0,1-1.21-2.09v-15.5C327.52,293.14,328.06,292.83,328.73,293.22Z" style="fill:#BA68C8"></path><path d="M328.73,293.22l36,20.8a2.67,2.67,0,0,1,1.21,2.09v15.5c0,.77-.54,1.08-1.21.7l-36-20.81a2.67,2.67,0,0,1-1.21-2.09v-15.5C327.52,293.14,328.06,292.83,328.73,293.22Z" style="opacity:0.4"></path><path d="M368.24,314.75v15.44a2.75,2.75,0,0,1-1.13,2.1,2.48,2.48,0,0,1-2.15.11c.58.23,1-.09,1-.79v-15.5a2.32,2.32,0,0,0-.36-1.18h0l2.29-1.31A2.44,2.44,0,0,1,368.24,314.75Z" style="opacity:0.15"></path><path d="M341.82,303.39l9.86,5.69a1.59,1.59,0,0,1,.72,1.25v.93c0,.47-.33.65-.72.42L341.82,306a1.6,1.6,0,0,1-.73-1.26v-.94C341.09,303.34,341.42,303.15,341.82,303.39Z" style="fill:#e6e6e6"></path><path d="M341.09,320.64a1.34,1.34,0,0,0-.6-1.05l-2.18-1.26a.45.45,0,0,0-.43,0l-1.13.66a.4.4,0,0,0-.18.38v1.22a1.32,1.32,0,0,0,.61,1.05l2.18,1.26a.43.43,0,0,0,.42,0l1.13-.65a.43.43,0,0,0,.18-.39Z" style="fill:#BA68C8"></path><path d="M337.18,319l2.18,1.26a1.33,1.33,0,0,1,.6,1v1.22c0,.38-.27.54-.6.35l-2.18-1.26a1.32,1.32,0,0,1-.61-1.05v-1.22C336.57,319,336.84,318.79,337.18,319Z" style="fill:#BA68C8"></path><path d="M341.09,320.64v1.22a.42.42,0,0,1-.18.39l-1.09.63a.47.47,0,0,0,.14-.37v-1.22a1.32,1.32,0,0,0-.17-.59l1.13-.65A1.32,1.32,0,0,1,341.09,320.64Z" style="opacity:0.15"></path><path d="M340.92,320.05l-1.13.65a1.17,1.17,0,0,0-.43-.45L337.18,319a.45.45,0,0,0-.41-.06l1.11-.64a.45.45,0,0,1,.43,0l2.18,1.26A1.27,1.27,0,0,1,340.92,320.05Z" style="opacity:0.25"></path><path d="M347.88,324.56a1.34,1.34,0,0,0-.61-1.05l-2.18-1.25a.41.41,0,0,0-.42-.05l-1.14.66a.44.44,0,0,0-.17.39v1.22a1.33,1.33,0,0,0,.6,1l2.18,1.26a.43.43,0,0,0,.43,0l1.13-.65a.42.42,0,0,0,.18-.39Z" style="fill:#BA68C8"></path><path d="M344,322.91l2.18,1.26a1.32,1.32,0,0,1,.61,1v1.22c0,.39-.27.54-.61.35L344,325.52a1.33,1.33,0,0,1-.6-1v-1.22C343.36,322.87,343.63,322.72,344,322.91Z" style="fill:#BA68C8"></path><path d="M347.88,324.56v1.22a.42.42,0,0,1-.18.39l-1.09.63a.45.45,0,0,0,.14-.37v-1.22a1.22,1.22,0,0,0-.18-.59l1.13-.65A1.22,1.22,0,0,1,347.88,324.56Z" style="opacity:0.15"></path><path d="M347.7,324l-1.13.65a1.1,1.1,0,0,0-.43-.45L344,322.91a.46.46,0,0,0-.4-.06l1.11-.64a.43.43,0,0,1,.42,0l2.18,1.26A1.27,1.27,0,0,1,347.7,324Z" style="opacity:0.25"></path><path d="M354.66,328.48a1.33,1.33,0,0,0-.6-1l-2.18-1.26a.43.43,0,0,0-.43-.05l-1.13.66a.42.42,0,0,0-.17.39v1.22a1.31,1.31,0,0,0,.6,1l2.18,1.26a.4.4,0,0,0,.43,0l1.13-.65a.42.42,0,0,0,.17-.39Z" style="fill:#BA68C8"></path><path d="M350.75,326.83l2.18,1.26a1.33,1.33,0,0,1,.6,1v1.22c0,.39-.27.54-.6.35l-2.18-1.26a1.31,1.31,0,0,1-.6-1v-1.22C350.15,326.79,350.41,326.64,350.75,326.83Z" style="fill:#BA68C8"></path><path d="M354.66,328.48v1.22a.42.42,0,0,1-.18.39l-1.09.63a.45.45,0,0,0,.14-.37v-1.22a1.32,1.32,0,0,0-.17-.59l1.13-.65A1.32,1.32,0,0,1,354.66,328.48Z" style="opacity:0.15"></path><path d="M354.49,327.89l-1.13.65a1.24,1.24,0,0,0-.43-.45l-2.18-1.26a.47.47,0,0,0-.4-.06l1.1-.63a.4.4,0,0,1,.43,0l2.18,1.25A1.27,1.27,0,0,1,354.49,327.89Z" style="opacity:0.25"></path><path d="M375.34,326.74v19.5l-1.61-.92v-.38l-1.94-1.11-.31.18h0l-1.61-.93v-19.5c0-.77.54-1.08,1.21-.7l3.07,1.78A2.67,2.67,0,0,1,375.34,326.74Z" style="fill:#455a64"></path><path d="M373.73,338.06v6.88l-1.94-1.11-.31.18h0v-7.26c0-.25.14-.38.34-.33a.39.39,0,0,1,.14.05l1.3.75A1.07,1.07,0,0,1,373.73,338.06Z" style="fill:#263238"></path><path d="M373.73,338.06v6.88l-1.94-1.11v-7.26a.61.61,0,0,1,0-.15.39.39,0,0,1,.14.05l1.3.75A1.07,1.07,0,0,1,373.73,338.06Z" style="fill:#37474f"></path><path d="M372.46,337.84l-.25.14v0a.35.35,0,0,0-.05.18.86.86,0,0,0,.39.67.31.31,0,0,0,.18,0v0l.25-.14h0a.27.27,0,0,0,.11-.25.86.86,0,0,0-.38-.67A.27.27,0,0,0,372.46,337.84Z" style="fill:#BA68C8"></path><path d="M372.46,337.84l-.25.14v0a.35.35,0,0,0-.05.18.86.86,0,0,0,.39.67.31.31,0,0,0,.18,0v0l.25-.14h0a.27.27,0,0,0,.11-.25.86.86,0,0,0-.38-.67A.27.27,0,0,0,372.46,337.84Z" style="opacity:0.15"></path><path d="M372.86,338.67c0,.25-.17.35-.38.22a.86.86,0,0,1-.39-.66c0-.25.18-.35.39-.22A.84.84,0,0,1,372.86,338.67Z" style="fill:#BA68C8"></path><path d="M372.28,326.53l-.55.32,0,0a.79.79,0,0,0-.1.4,1.86,1.86,0,0,0,.85,1.46.69.69,0,0,0,.39.11l0,.05.55-.31h0a.61.61,0,0,0,.25-.55,1.87,1.87,0,0,0-.84-1.46A.58.58,0,0,0,372.28,326.53Z" style="fill:#BA68C8"></path><path d="M372.28,326.53l-.55.32,0,0a.79.79,0,0,0-.1.4,1.86,1.86,0,0,0,.85,1.46.69.69,0,0,0,.39.11l0,.05.55-.31h0a.61.61,0,0,0,.25-.55,1.87,1.87,0,0,0-.84-1.46A.58.58,0,0,0,372.28,326.53Z" style="opacity:0.15"></path><path d="M373.17,328.37c0,.53-.38.75-.84.48a1.85,1.85,0,0,1-.84-1.46c0-.54.37-.75.84-.48A1.86,1.86,0,0,1,373.17,328.37Z" style="fill:#BA68C8"></path><path d="M372.46,340.48l-.25.14v0a.35.35,0,0,0-.05.18.86.86,0,0,0,.39.67.31.31,0,0,0,.18.05v0l.25-.14h0a.27.27,0,0,0,.11-.25.86.86,0,0,0-.38-.67A.27.27,0,0,0,372.46,340.48Z" style="fill:#BA68C8"></path><path d="M372.46,340.48l-.25.14v0a.35.35,0,0,0-.05.18.86.86,0,0,0,.39.67.31.31,0,0,0,.18.05v0l.25-.14h0a.27.27,0,0,0,.11-.25.86.86,0,0,0-.38-.67A.27.27,0,0,0,372.46,340.48Z" style="opacity:0.15"></path><path d="M372.86,341.31c0,.25-.17.35-.38.23a.89.89,0,0,1-.39-.67c0-.25.18-.34.39-.22A.84.84,0,0,1,372.86,341.31Z" style="fill:#BA68C8"></path><path d="M372.4,330.43l-.34.19,0,0a.46.46,0,0,0-.06.25,1.15,1.15,0,0,0,.52.9.5.5,0,0,0,.25.07v0l.34-.2h0a.34.34,0,0,0,.15-.33,1.15,1.15,0,0,0-.52-.91A.36.36,0,0,0,372.4,330.43Z" style="fill:#263238"></path><path d="M373,331.56c0,.34-.23.47-.52.3a1.13,1.13,0,0,1-.52-.9c0-.33.23-.47.52-.3A1.15,1.15,0,0,1,373,331.56Z" style="fill:#37474f"></path><path d="M372.4,333.28l-.34.2,0,0a.43.43,0,0,0-.06.24,1.17,1.17,0,0,0,.52.91.5.5,0,0,0,.25.07v0l.34-.2h0a.36.36,0,0,0,.15-.34,1.13,1.13,0,0,0-.52-.9A.36.36,0,0,0,372.4,333.28Z" style="fill:#263238"></path><path d="M373,334.42c0,.33-.23.46-.52.3a1.15,1.15,0,0,1-.52-.91c0-.33.23-.46.52-.3A1.15,1.15,0,0,1,373,334.42Z" style="fill:#37474f"></path><path d="M382.37,310.11a.74.74,0,0,0-.34-.57l-3.2-1.84a.74.74,0,0,0-.68,0l-4.42,2.54a.69.69,0,0,0-.33.57.81.81,0,0,0,.35.58l3.19,1.83a.74.74,0,0,0,.68,0l4.41-2.55A.71.71,0,0,0,382.37,310.11Z" style="fill:#BA68C8"></path><path d="M382.37,310.11a.74.74,0,0,0-.34-.57l-3.2-1.84a.74.74,0,0,0-.68,0l-4.42,2.54a.69.69,0,0,0-.33.57.81.81,0,0,0,.35.58l3.19,1.83a.74.74,0,0,0,.68,0l4.41-2.55A.71.71,0,0,0,382.37,310.11Z" style="fill:#fff;opacity:0.2"></path><path d="M382,309.94l-4.42,2.54a.81.81,0,0,1-.68,0l-3.2-1.85c-.19-.11-.19-.28,0-.39l4.42-2.54a.74.74,0,0,1,.68,0l3.2,1.84A.21.21,0,0,1,382,309.94Z" style="fill:#BA68C8"></path><path d="M382,309.94l-4.42,2.54a.81.81,0,0,1-.68,0l-3.2-1.85c-.19-.11-.19-.28,0-.39l4.42-2.54a.74.74,0,0,1,.68,0l3.2,1.84A.21.21,0,0,1,382,309.94Z" style="fill:#fff;opacity:0.5"></path><path d="M376.94,313.22l-3.19-1.83a.81.81,0,0,1-.35-.58.68.68,0,0,1,.28-.54c-.14.11-.12.26.05.36l3.2,1.85a.74.74,0,0,0,.34.08h0v.74A.7.7,0,0,1,376.94,313.22Z" style="opacity:0.15"></path><path d="M380.9,308.65v.82a.53.53,0,0,1-.24.42l-3.29,1.9a.51.51,0,0,1-.48,0l-1.78-1a.45.45,0,0,1,0-.79l1.78-1a2,2,0,0,0,.42-.35l1.15-1.32a.37.37,0,0,1,.42-.07l1.78,1A.51.51,0,0,1,380.9,308.65Z" style="fill:#BA68C8"></path><path d="M380.9,308.65v.82a.53.53,0,0,1-.24.42l-3.29,1.9a.51.51,0,0,1-.48,0l-1.78-1a.45.45,0,0,1,0-.79l1.78-1a2,2,0,0,0,.42-.35l1.15-1.32a.37.37,0,0,1,.42-.07l1.78,1A.51.51,0,0,1,380.9,308.65Z" style="opacity:0.30000000000000004"></path><path d="M377.37,311.28l1.78-1a2.37,2.37,0,0,0,.42-.35l1.15-1.32a.22.22,0,0,0-.06-.35l-1.78-1a.37.37,0,0,0-.42.07l-1.15,1.32a2,2,0,0,1-.42.35l-1.78,1a.15.15,0,0,0,0,.28l1.78,1A.57.57,0,0,0,377.37,311.28Z" style="fill:#BA68C8"></path><path d="M380.66,308.23l-1.78-1a.37.37,0,0,0-.42.07l-1.15,1.32a2.08,2.08,0,0,1-.21.2l2.27,1.3a1.23,1.23,0,0,0,.2-.19l1.15-1.32A.22.22,0,0,0,380.66,308.23Z" style="opacity:0.15"></path><path d="M377.1,311.33v.51a.38.38,0,0,1-.21,0l-1.78-1a.52.52,0,0,1-.24-.39.49.49,0,0,1,.2-.36c-.09.07-.08.17,0,.24l1.78,1A.39.39,0,0,0,377.1,311.33Z" style="opacity:0.15"></path><path d="M379.37,310.09l-2.27-1.3-.21.15-1.78,1a.15.15,0,0,0,0,.28l1.78,1a.57.57,0,0,0,.48,0l1.78-1Z" style="opacity:0.05"></path><path d="M386.46,289.25v-.57h.14a1.93,1.93,0,0,1,.75-.72,4.7,4.7,0,0,1,4.26,0,1.93,1.93,0,0,1,.75.72h.14v.57h0a1.5,1.5,0,0,1-.89,1.23,4.7,4.7,0,0,1-4.26,0A1.5,1.5,0,0,1,386.46,289.25Z" style="fill:#263238"></path><path d="M391.61,289.91a1.3,1.3,0,0,0,0-2.46,4.7,4.7,0,0,0-4.26,0,1.3,1.3,0,0,0,0,2.46A4.7,4.7,0,0,0,391.61,289.91Z" style="fill:#37474f"></path><path d="M387.14,288.45v-1h.11a1.47,1.47,0,0,1,.58-.55,3.62,3.62,0,0,1,3.3,0,1.47,1.47,0,0,1,.58.55h.11v1h0a1.16,1.16,0,0,1-.69.95,3.62,3.62,0,0,1-3.3,0A1.16,1.16,0,0,1,387.14,288.45Z" style="fill:#BA68C8"></path><path d="M387.14,288.45v-1h.11a1.47,1.47,0,0,1,.58-.55,3.62,3.62,0,0,1,3.3,0,1.47,1.47,0,0,1,.58.55h.11v1h0a1.16,1.16,0,0,1-.69.95,3.62,3.62,0,0,1-3.3,0A1.16,1.16,0,0,1,387.14,288.45Z" style="opacity:0.15"></path><path d="M391.13,288.41a1,1,0,0,0,0-1.91,3.62,3.62,0,0,0-3.3,0,1,1,0,0,0,0,1.91A3.62,3.62,0,0,0,391.13,288.41Z" style="fill:#BA68C8"></path><path d="M382,295.28l-2.48,1.43a1,1,0,0,1-.9,0l-2.46-1.43a.27.27,0,0,1,0-.52l2.46-1.42a1,1,0,0,1,.9,0l2.48,1.42A.27.27,0,0,1,382,295.28Z" style="fill:#263238"></path><path d="M382,295.28l-2.48,1.43a1,1,0,0,1-.9,0l-2.46-1.43,2.46-1.43a1,1,0,0,1,.9,0Z" style="fill:#37474f"></path><path d="M378,295.25v-.46H378a.66.66,0,0,1,.27-.25,1.63,1.63,0,0,1,1.52,0,.63.63,0,0,1,.26.25h.05v.46h0a.53.53,0,0,1-.31.44,1.69,1.69,0,0,1-1.52,0A.54.54,0,0,1,378,295.25Z" style="fill:#BA68C8"></path><path d="M378,295.25v-.46H378a.66.66,0,0,1,.27-.25,1.63,1.63,0,0,1,1.52,0,.63.63,0,0,1,.26.25h.05v.46h0a.53.53,0,0,1-.31.44,1.69,1.69,0,0,1-1.52,0A.54.54,0,0,1,378,295.25Z" style="opacity:0.15"></path><path d="M379.79,295.23a.46.46,0,0,0,0-.88,1.69,1.69,0,0,0-1.52,0,.46.46,0,0,0,0,.88A1.69,1.69,0,0,0,379.79,295.23Z" style="fill:#BA68C8"></path><path d="M386.81,292.47l-2.47,1.43a1,1,0,0,1-.9,0L381,292.47c-.25-.14-.25-.37,0-.52l2.47-1.42a1,1,0,0,1,.9,0l2.47,1.42C387.06,292.1,387.06,292.33,386.81,292.47Z" style="fill:#263238"></path><path d="M386.81,292.47l-2.47,1.43a1,1,0,0,1-.9,0L381,292.47l2.47-1.42a1,1,0,0,1,.9,0Z" style="fill:#37474f"></path><path d="M382.81,292.44V292h.05a.66.66,0,0,1,.27-.25,1.69,1.69,0,0,1,1.52,0,.66.66,0,0,1,.27.25H385v.46h0a.54.54,0,0,1-.32.44,1.69,1.69,0,0,1-1.52,0A.54.54,0,0,1,382.81,292.44Z" style="fill:#BA68C8"></path><path d="M382.81,292.44V292h.05a.66.66,0,0,1,.27-.25,1.69,1.69,0,0,1,1.52,0,.66.66,0,0,1,.27.25H385v.46h0a.54.54,0,0,1-.32.44,1.69,1.69,0,0,1-1.52,0A.54.54,0,0,1,382.81,292.44Z" style="opacity:0.15"></path><path d="M384.65,292.42c.42-.24.42-.63,0-.88a1.69,1.69,0,0,0-1.52,0c-.42.25-.42.64,0,.88A1.63,1.63,0,0,0,384.65,292.42Z" style="fill:#BA68C8"></path><path d="M402.66,313.91h0l-.29-.16c-1.68-.89-4-.72-6.5.73-5.22,3-9.46,10.31-9.47,16.32a9.85,9.85,0,0,0,.41,3,5.77,5.77,0,0,0,1.69,2.7,6.13,6.13,0,0,0,.58.42h0l0,0,.05,0,.15.09,6.33,3.66a4.89,4.89,0,0,1-.72-.55c-1.24-1.13-2-3-2-5.53,0-6,4.25-13.32,9.47-16.31a7.26,7.26,0,0,1,5.75-1,4,4,0,0,1,.77.32Z" style="fill:#BA68C8"></path><path d="M402.66,313.91h0l-.29-.16c-1.68-.89-4-.72-6.5.73-5.22,3-9.46,10.31-9.47,16.32a9.85,9.85,0,0,0,.41,3,5.77,5.77,0,0,0,1.69,2.7,6.13,6.13,0,0,0,.58.42h0l0,0,.05,0,.15.09,6.33,3.66a4.89,4.89,0,0,1-.72-.55c-1.24-1.13-2-3-2-5.53,0-6,4.25-13.32,9.47-16.31a7.26,7.26,0,0,1,5.75-1,4,4,0,0,1,.77.32Z" style="opacity:0.25"></path><path d="M388.5,336.45a6.13,6.13,0,0,0,.58.42l-3.34-1.94h0l0,0c-1.68-1-2.71-3.11-2.7-6.09,0-6,4.24-13.32,9.46-16.32a8.58,8.58,0,0,1,4.21-1.28,4.77,4.77,0,0,1,2.46.64l3.26,1.89c-1.68-.89-4-.72-6.5.73-5.22,3-9.46,10.31-9.47,16.32a9.85,9.85,0,0,0,.41,3A5.57,5.57,0,0,0,388.5,336.45Z" style="fill:#455a64"></path><path d="M422.14,329.7c0,6-4.25,13.32-9.47,16.32a8.45,8.45,0,0,1-4.21,1.28,4.81,4.81,0,0,1-2.44-.62h0l-10.21-5.92-.14-.08a4.89,4.89,0,0,1-.72-.55c-1.24-1.13-2-3-2-5.53,0-6,4.25-13.32,9.47-16.31a7.26,7.26,0,0,1,5.75-1,4,4,0,0,1,.77.32l0,0,.27.16,10.11,5.85h0C421.09,324.57,422.14,326.69,422.14,329.7Z" style="fill:#37474f"></path><path d="M392.39,338a.33.33,0,0,1-.14,0l-3.58-2.06a.28.28,0,0,1-.1-.38.28.28,0,0,1,.39-.11l3.57,2.06a.28.28,0,0,1,.11.38A.29.29,0,0,1,392.39,338Z" style="fill:#37474f"></path><path d="M391.68,335.47l-.14,0L388,333.38a.28.28,0,1,1,.28-.49l3.58,2.05a.29.29,0,0,1,.1.39A.29.29,0,0,1,391.68,335.47Z" style="fill:#37474f"></path><path d="M391.43,333.07a.42.42,0,0,1-.15,0L387.71,331a.27.27,0,0,1-.1-.38.28.28,0,0,1,.39-.11l3.57,2.06a.28.28,0,0,1,.1.38A.27.27,0,0,1,391.43,333.07Z" style="fill:#37474f"></path><path d="M391.56,330.88a.25.25,0,0,1-.14,0l-3.57-2a.29.29,0,1,1,.28-.5l3.58,2.06a.29.29,0,0,1,.1.39A.29.29,0,0,1,391.56,330.88Z" style="fill:#37474f"></path><path d="M392.17,328.78a.23.23,0,0,1-.14,0l-3.58-2.05a.28.28,0,0,1,.29-.49l3.57,2.05a.28.28,0,0,1,.1.39A.27.27,0,0,1,392.17,328.78Z" style="fill:#37474f"></path><path d="M393,326.71a.28.28,0,0,1-.15,0l-3.57-2.05a.28.28,0,1,1,.29-.49l3.57,2.05a.28.28,0,0,1-.14.53Z" style="fill:#37474f"></path><path d="M394.05,324.71a.43.43,0,0,1-.14,0l-3.57-2.06a.28.28,0,1,1,.28-.49l3.58,2.05a.29.29,0,0,1,.1.39A.29.29,0,0,1,394.05,324.71Z" style="fill:#37474f"></path><path d="M395.28,322.81a.27.27,0,0,1-.14,0l-3.57-2a.28.28,0,0,1-.1-.39.27.27,0,0,1,.38-.11l3.58,2.06a.28.28,0,0,1-.15.53Z" style="fill:#37474f"></path><path d="M396.68,321.06a.28.28,0,0,1-.15,0L393,319a.28.28,0,0,1-.1-.39.27.27,0,0,1,.38-.1l3.58,2a.29.29,0,0,1,.1.39A.28.28,0,0,1,396.68,321.06Z" style="fill:#37474f"></path><path d="M398.2,319.51a.33.33,0,0,1-.14,0l-3.57-2.06a.27.27,0,0,1-.11-.38.28.28,0,0,1,.39-.11l3.57,2.06a.27.27,0,0,1,.11.38A.29.29,0,0,1,398.2,319.51Z" style="fill:#37474f"></path><path d="M399.84,318.19a.28.28,0,0,1-.15,0l-3.57-2a.28.28,0,0,1-.1-.39.29.29,0,0,1,.39-.11l3.57,2.06a.29.29,0,0,1,.1.39A.28.28,0,0,1,399.84,318.19Z" style="fill:#37474f"></path><path d="M401.78,317a.27.27,0,0,1-.14,0L398.07,315a.29.29,0,0,1-.11-.39.29.29,0,0,1,.39-.11l3.58,2.06a.29.29,0,0,1,.1.39A.29.29,0,0,1,401.78,317Z" style="fill:#37474f"></path><path d="M404.06,316.27a.32.32,0,0,1-.14,0l-3.58-2.06a.28.28,0,0,1,.29-.49l3.57,2.05a.29.29,0,0,1,.11.39A.3.3,0,0,1,404.06,316.27Z" style="fill:#37474f"></path><path d="M402.32,333.1a18.22,18.22,0,0,0-1.37,6.59,8.82,8.82,0,0,0,1.14,4.71l-6.3-3.65-.13-.07h0L389.32,337l-.15-.09-.05,0,0,0h0l-3.34-1.94h0l0,0c-1.67-1-2.71-3.11-2.7-6.09a17.32,17.32,0,0,1,1.28-6.2Z" style="opacity:0.15"></path><path d="M418.62,319.94c-2-1.19-4.86-1-8,.76-6.26,3.6-11.34,12.36-11.35,19.57,0,3.53,1.21,6,3.18,7.24.66.41,5.11,2.82,5.74,3.19,2,1.19,4.87,1,8-.76,6.25-3.59,11.33-12.36,11.35-19.57,0-3.56-1.23-6.07-3.23-7.27C423.67,322.71,419.25,320.31,418.62,319.94Z" style="fill:#455a64"></path><path d="M400.59,345.62l.2.3a3.46,3.46,0,0,1-.22-.31Z" style="fill:#455a64"></path><path d="M404.9,343.39c0,7.21,5,10.14,11.3,6.55s11.33-12.36,11.35-19.57-5.05-10.15-11.3-6.55S404.91,336.17,404.9,343.39Z" style="fill:#37474f"></path><path d="M411.15,348.69c-3.14,0-3.47-3.71-3.47-5.3,0-6.21,4.57-14.06,10-17.16a7.56,7.56,0,0,1,3.66-1.16c3.13,0,3.47,3.7,3.46,5.29,0,6.21-4.57,14.07-9.95,17.17a7.7,7.7,0,0,1-3.66,1.16Z" style="fill:#263238"></path><path d="M421.06,326.64a10.34,10.34,0,0,0-.11-1.54,8,8,0,0,0-3.31,1.13c-5.39,3.1-9.94,10.95-10,17.16a11.92,11.92,0,0,0,.11,1.55,8,8,0,0,0,3.31-1.13C416.49,340.71,421.05,332.85,421.06,326.64Z" style="fill:#BA68C8"></path><path d="M421.06,326.64a10.34,10.34,0,0,0-.11-1.54,8,8,0,0,0-3.31,1.13c-5.39,3.1-9.94,10.95-10,17.16a11.92,11.92,0,0,0,.11,1.55,8,8,0,0,0,3.31-1.13C416.49,340.71,421.05,332.85,421.06,326.64Z" style="opacity:0.30000000000000004"></path><path d="M414.72,329.72c2.13-2.57,4.87-3.42,5.29-2.47s-.92,10.22-9.89,15.66a31.54,31.54,0,0,0,7.21-9.44C418.71,330.39,417.46,327.86,414.72,329.72Z" style="fill:#e0e0e0"></path><path d="M407.93,350.55l-.12-.07-.08-.05-.19-.1-.16-.09-.34-.18-.76-.42-2.7-1.49-.63-.36-.49-.28a5.17,5.17,0,0,1-.71-.52c-.11-.09-.21-.19-.31-.29a4.78,4.78,0,0,1-.47-.54,1.88,1.88,0,0,1-.18-.24l-.2-.3h0a10.09,10.09,0,0,1-1.29-5.34,20.93,20.93,0,0,1,1.55-7.46c.13-.33.26-.64.4-.95s.2-.47.32-.69.22-.47.33-.69c0,0,0,0,0,0l5.56,3.23a22.18,22.18,0,0,0-2.55,9.7,10.17,10.17,0,0,0,1.25,5.29A5.92,5.92,0,0,0,407.93,350.55Z" style="opacity:0.15"></path><path d="M328.34,279.93v-.8h.19a2.71,2.71,0,0,1,1-1,6.61,6.61,0,0,1,5.94,0,2.64,2.64,0,0,1,1,1h.19v.8h0a2.08,2.08,0,0,1-1.23,1.71,6.55,6.55,0,0,1-5.94,0A2.08,2.08,0,0,1,328.34,279.93Z" style="fill:#263238"></path><path d="M335.51,280.84c1.65-.94,1.64-2.48,0-3.43a6.61,6.61,0,0,0-5.94,0c-1.64.95-1.64,2.49,0,3.43A6.55,6.55,0,0,0,335.51,280.84Z" style="fill:#37474f"></path><path d="M355.65,277.38,336.46,266.3a3.26,3.26,0,0,0-4.89,2.82v9.65a.46.46,0,0,0,.29.38,1.5,1.5,0,0,0,1.37,0,.48.48,0,0,0,.29-.38v-9.65a1.31,1.31,0,0,1,2-1.13l19.2,11.08a1,1,0,0,0,1-1.69Z" style="fill:#263238"></path><path d="M381.89,291.28h0c-1.2-2.06-23.21-16.24-28.93-19.55a2.18,2.18,0,0,0-2.32.18,7.08,7.08,0,0,0-3.2,5.55,2.19,2.19,0,0,0,1,2.1c5.76,3.32,28.5,15.43,31.6,15.29a2.26,2.26,0,0,0,1.85-3.57Z" style="fill:#BA68C8"></path><path d="M382.2,293.23c-.64.9-1.77,1.36-5.33-.18-3.3-1.44-22.52-12.66-29.32-16.61a5.21,5.21,0,0,0-.11,1,2.19,2.19,0,0,0,1,2.1c5.76,3.32,28.5,15.43,31.6,15.29A2.25,2.25,0,0,0,382.2,293.23Z" style="opacity:0.1"></path></g><path d="M376.29,277.39a6.47,6.47,0,0,0,1.75-2.53c.34-.94-.05-4.25-.9-5.2s-4.64-4.89-5.87-4.54-2.54,6.88-1.47,9.37S374.12,278.55,376.29,277.39Z" style="fill:#af6152"></path><path d="M374.48,271a7.45,7.45,0,0,0,.14,2.41,2.38,2.38,0,0,1,1.4.23,2.5,2.5,0,0,0-1.53.06l-1.24,1.3,1-1.56S373.93,271.43,374.48,271Z" style="fill:#c8856a"></path><path d="M378,284.33a.72.72,0,0,1,.34-.57l3.2-1.84a.74.74,0,0,1,.68,0l2.29,1.32a.73.73,0,0,1,.33.57.79.79,0,0,1-.36.58l-3.19,1.83a.74.74,0,0,1-.68,0l-2.27-1.33A.72.72,0,0,1,378,284.33Z" style="fill:#BA68C8"></path><path d="M378,284.33a.72.72,0,0,1,.34-.57l3.2-1.84a.74.74,0,0,1,.68,0l2.29,1.32a.73.73,0,0,1,.33.57.79.79,0,0,1-.36.58l-3.19,1.83a.74.74,0,0,1-.68,0l-2.27-1.33A.72.72,0,0,1,378,284.33Z" style="fill:#fff;opacity:0.2"></path><path d="M378.38,284.16l2.29,1.32a.74.74,0,0,0,.68,0l3.2-1.85c.19-.1.19-.28,0-.39l-2.29-1.32a.74.74,0,0,0-.68,0l-3.2,1.84A.21.21,0,0,0,378.38,284.16Z" style="fill:#BA68C8"></path><path d="M378.38,284.16l2.29,1.32a.74.74,0,0,0,.68,0l3.2-1.85c.19-.1.19-.28,0-.39l-2.29-1.32a.74.74,0,0,0-.68,0l-3.2,1.84A.21.21,0,0,0,378.38,284.16Z" style="fill:#fff;opacity:0.5"></path><path d="M381.33,286.22l3.19-1.83a.75.75,0,0,0,.35-.58.71.71,0,0,0-.27-.54c.14.11.12.27-.05.36l-3.2,1.85a.77.77,0,0,1-.34.08h0v.74A.69.69,0,0,0,381.33,286.22Z" style="opacity:0.15"></path><path d="M357.63,272.6A.72.72,0,0,1,358,272l3.21-1.84a.74.74,0,0,1,.68,0l2.28,1.32a.71.71,0,0,1,.33.57.76.76,0,0,1-.36.57l-3.19,1.84a.81.81,0,0,1-.68,0L358,273.17A.72.72,0,0,1,357.63,272.6Z" style="fill:#BA68C8"></path><path d="M357.63,272.6A.72.72,0,0,1,358,272l3.21-1.84a.74.74,0,0,1,.68,0l2.28,1.32a.71.71,0,0,1,.33.57.76.76,0,0,1-.36.57l-3.19,1.84a.81.81,0,0,1-.68,0L358,273.17A.72.72,0,0,1,357.63,272.6Z" style="fill:#fff;opacity:0.2"></path><path d="M358,272.43l2.29,1.32a.74.74,0,0,0,.68,0l3.2-1.84c.19-.11.19-.28,0-.39l-2.28-1.32a.74.74,0,0,0-.68,0L358,272C357.78,272.15,357.78,272.32,358,272.43Z" style="fill:#BA68C8"></path><path d="M358,272.43l2.29,1.32a.74.74,0,0,0,.68,0l3.2-1.84c.19-.11.19-.28,0-.39l-2.28-1.32a.74.74,0,0,0-.68,0L358,272C357.78,272.15,357.78,272.32,358,272.43Z" style="fill:#fff;opacity:0.5"></path><path d="M360.92,274.5l3.19-1.84a.78.78,0,0,0,.36-.57.74.74,0,0,0-.28-.54c.14.11.12.26-.05.36l-3.2,1.84a.57.57,0,0,1-.34.08h0v.75A.69.69,0,0,0,360.92,274.5Z" style="opacity:0.15"></path><path d="M362.87,266.47v5.19l-2,1.17v-6.89c0-.35.25-.49.56-.32Z"></path><path d="M383.13,275.07v8.39l-1.93,1.12-1.3-.75v-6.89a1.23,1.23,0,0,0-.56-1l-15.89-9.17-2.05-1.19c-.31-.17-.56,0-.56.32v6.89l-1.3-.76v-8.5a1.28,1.28,0,0,1,.55-.85l.83-.48a1.27,1.27,0,0,1,1.11,0l20.55,11.86A1.22,1.22,0,0,1,383.13,275.07Z" style="fill:#37474f"></path><path d="M381.2,276.19v8.39l-1.3-.75v-6.89a1.23,1.23,0,0,0-.56-1l-15.89-9.17-2.05-1.19c-.31-.17-.56,0-.56.32v6.89l-1.3-.76v-8.5c0-.27.28-.37.55-.21l20.55,11.86A1.23,1.23,0,0,1,381.2,276.19Z" style="fill:#263238"></path><path d="M387.43,166.15c-7.35,1.06-12.86,2.63-16.28,11.48-4.1,10.61-7.58,19.17-12.53,32.84a23.26,23.26,0,0,0-1.64,8.05c-.19,13.25.21,24,.19,32.93,0,2.86-.21,6.79-.08,9.65a69.39,69.39,0,0,0,1.21,9.36,4.39,4.39,0,0,0,2.45,3.41,6.46,6.46,0,0,1,1.08.45c.63.42.89,1.2,1.41,1.74a3.44,3.44,0,0,0,2.32,1,8.77,8.77,0,0,1,1.15.08c1.41.25,2.41,1.53,3.74,2a4.18,4.18,0,0,0,3.12.17,8.1,8.1,0,0,0,1.51-.87c.27-.18,1-.85,1.21-1.05-1.92.12-3.25-1.5-3.92-3a13.87,13.87,0,0,1-1.17-5.56,3,3,0,0,1,.23-1.32.61.61,0,0,1,.49-.39c.25,0,.41.25.52.47a13.52,13.52,0,0,0,2.92,4.06,3,3,0,0,0,1.85.85,1.38,1.38,0,0,0,1.42-1.23,2.3,2.3,0,0,0-.23-.79,35.91,35.91,0,0,1-2.06-6.32,24,24,0,0,0-1.87-5.85c-1-1.93-2.64-4.16-2.66-6.38-.09-10.71,3.65-34.55,3.65-34.55s9.78-19.34,13.85-27.37C392.71,181.76,390.15,168.42,387.43,166.15Z" style="fill:#c8856a"></path><path d="M387.81,165.5c-5.41.65-9.92,2.22-12.76,4.67s-4.83,8.41-7.94,16.19-6.08,16.22-7.87,21.09-2.61,6.39-2.67,13.37.36,15.12.36,15.12a17.1,17.1,0,0,1,9.76-2.94c5.72.11,6.35,2.3,6.35,2.3l3-17.69,14.19-27S395.62,177,387.81,165.5Z" style="fill:#37474f"></path></g></g></g><g id="freepik--character-1--inject-28"><g id="freepik--character--inject-28"><g id="freepik--bottom--inject-28"><polygon points="269.2 431.57 263.14 429.28 265.14 425.2 268.86 428.67 269.2 431.57"></polygon><path d="M275.53,420.71s.22,3.93.27,5.17-5.28,5.07-6.6,5.7l-.34-2.91a22.39,22.39,0,0,0-3.06,4.68c-1,1.76-2.35,5.1-5.17,7.36-4.19,3.36-10.69,5.05-17.33,5.26s-10.42-1.43-12.29-2.87-2.47-3.12-2-4.79S275.53,420.71,275.53,420.71Z" style="fill:#263238"></path><path d="M257.85,407.21l-.07-2.28c-1.22,0-1.38,3.26-3.18,6.15a58.62,58.62,0,0,1-9.39,11.83c-6.75,6.06-12.77,9.86-15.78,12.59-4,3.65,3,9.52,13.82,9,5.37-.27,14.93-2.91,17.62-6.06s4.37-8,6.53-10.34,6.78-4.57,8.13-7.35c.74-1.53.37-5.1-.06-8.13-.39-2.79-.45-7.06-2-6.72l-.12,1.43c-.65,1.22-2.15,3.22-6.49,3.93C264.67,411.57,258.22,411.73,257.85,407.21Z" style="fill:#37474f"></path><path d="M263.35,411.31c-2.06-.18-4.28-.87-5.14-2.73l0-.06a5.2,5.2,0,0,1-1.41,4.38c-1.95,2.24-14.25,18.06-14.25,18.06s11.44-13,13.63-15.5c3.25-3.63,4.27-4,7.23-4.14Z" style="opacity:0.15"></path><path d="M260.63,415.51a.68.68,0,0,0,.73.59.67.67,0,0,0,.59-.73.66.66,0,0,0-1.32.14Z" style="opacity:0.15"></path><path d="M257.42,419a.66.66,0,0,0,1.32-.14.66.66,0,1,0-1.32.14Z" style="opacity:0.15"></path><path d="M254.21,422.5a.66.66,0,0,0,1.32-.14.66.66,0,0,0-1.32.14Z" style="opacity:0.15"></path><path d="M251,426a.68.68,0,0,0,.73.59.67.67,0,0,0,.59-.73.66.66,0,0,0-.73-.58A.65.65,0,0,0,251,426Z" style="opacity:0.15"></path><path d="M247.79,429.5a.66.66,0,0,0,1.32-.14.66.66,0,1,0-1.32.14Z" style="opacity:0.15"></path><path d="M261.31,415.71a.38.38,0,0,0,.17-.08.28.28,0,0,0,0-.38c-.13-.13-3.3-3.2-7.47-3h0a.27.27,0,0,0-.25.28.26.26,0,0,0,.28.25c3.93-.2,7,2.8,7.06,2.83A.29.29,0,0,0,261.31,415.71Z" style="fill:#263238"></path><path d="M258.1,419.19a.25.25,0,0,0,.17-.08.27.27,0,0,0,0-.37c-.14-.13-3.3-3.2-7.47-3h0a.26.26,0,0,0-.24.28.27.27,0,0,0,.28.25c3.92-.21,7,2.79,7.06,2.82A.29.29,0,0,0,258.1,419.19Z" style="fill:#263238"></path><path d="M254.89,422.7a.3.3,0,0,0,.17-.08.27.27,0,0,0,0-.37,10.89,10.89,0,0,0-7.47-3h0a.26.26,0,0,0-.24.27.26.26,0,0,0,.28.25c3.92-.2,7,2.8,7.06,2.83A.29.29,0,0,0,254.89,422.7Z" style="fill:#263238"></path><path d="M251.68,426.19a.28.28,0,0,0,.17-.07.28.28,0,0,0,0-.38c-.14-.13-3.3-3.2-7.47-3h0a.27.27,0,0,0-.24.28.26.26,0,0,0,.28.25c3.92-.21,7,2.8,7.06,2.83A.28.28,0,0,0,251.68,426.19Z" style="fill:#263238"></path><path d="M248.47,429.69a.25.25,0,0,0,.17-.08.27.27,0,0,0,0-.37c-.14-.13-3.3-3.2-7.47-3h0a.27.27,0,0,0,0,.53c3.92-.21,7,2.79,7.06,2.82A.26.26,0,0,0,248.47,429.69Z" style="fill:#263238"></path><path d="M318.8,450.57c.92,5.14,2.14,8.48,4.36,11.3s6.18,3.14,9.13,2.53a12.63,12.63,0,0,0,9.81-9.63c.95-3.55.3-7.62-1.08-12.33Z" style="fill:#263238"></path><path d="M330.32,411.05c1.47-.06,2.73,6.85,4.4,13.71,1.79,7.36,4.59,11.27,5.94,16.21,1.87,6.86,1.76,10.06-.2,14.58s-12.14,10-17.16,4.49c-4.1-4.53-4.89-10-5.41-17a177.2,177.2,0,0,0-1.8-17.81c-.91-5.2-1.88-10.23-.69-11,.19.76.4,1.73.59,2.47.15.57.64,3.39,1.45,3.32a11.1,11.1,0,0,0-.21-2,2.34,2.34,0,0,1,.19-1.73,2.73,2.73,0,0,1,1.53-.91,41.8,41.8,0,0,1,4.25-1.18c.71-.15,1.44-.27,2.17-.35a24.79,24.79,0,0,1,3.83-.29,1.29,1.29,0,0,1,.87.61,2.2,2.2,0,0,1,.17.79,5.81,5.81,0,0,0,.36,1.42c.07.2.25.43.45.36s.21-.28.19-.45c-.1-.85-.28-1.45-.44-2.42-.07-.46-.22-1.07-.28-1.52S330.4,411.49,330.32,411.05Z" style="fill:#37474f"></path><path d="M335.53,443.33a.51.51,0,1,1-.61-.38A.5.5,0,0,1,335.53,443.33Z" style="opacity:0.15"></path><path d="M334.47,438.56a.51.51,0,1,1-.61-.38A.51.51,0,0,1,334.47,438.56Z" style="opacity:0.15"></path><path d="M333.46,434.06a.51.51,0,0,1-.39.61.51.51,0,1,1,.39-.61Z" style="opacity:0.15"></path><path d="M332.47,429.63a.51.51,0,0,1-1,.22.51.51,0,0,1,1-.22Z" style="opacity:0.15"></path><path d="M321,431.7a.51.51,0,0,1-.39.61.51.51,0,1,1,.39-.61Z" style="opacity:0.15"></path><path d="M322,436.17a.51.51,0,0,1-1,.22.51.51,0,0,1,1-.22Z" style="opacity:0.15"></path><path d="M323.05,440.67a.51.51,0,0,1-.39.61.51.51,0,0,1-.61-.39.49.49,0,0,1,.39-.6A.51.51,0,0,1,323.05,440.67Z" style="opacity:0.15"></path><path d="M324.11,445.44a.51.51,0,0,1-.39.61.51.51,0,0,1-.61-.38.51.51,0,0,1,1-.23Z" style="opacity:0.15"></path><polygon points="328.67 447.21 320.73 414 322.6 413.74 328.67 447.21" style="opacity:0.15"></polygon><path d="M335.09,443.7H335c-3.45-.34-9.15.68-11.26,2a.26.26,0,0,1-.29-.44c2.25-1.44,8-2.47,11.6-2.11a.25.25,0,0,1,.23.28A.27.27,0,0,1,335.09,443.7Z" style="fill:#263238"></path><path d="M334,438.93a.2.2,0,0,1-.13,0c-2.71-.9-8.79.5-11.21,2.05a.26.26,0,0,1-.36-.08.25.25,0,0,1,.08-.35c2.52-1.62,8.79-3.07,11.65-2.11a.26.26,0,0,1,0,.5Z" style="fill:#263238"></path><path d="M333,434.43a.22.22,0,0,1-.14,0c-2.71-.9-8.79.5-11.21,2.05a.26.26,0,0,1-.28-.43c2.52-1.63,8.8-3.06,11.65-2.11a.27.27,0,0,1,.17.33A.27.27,0,0,1,333,434.43Z" style="fill:#263238"></path><path d="M332,430a.2.2,0,0,1-.13,0c-2.71-.9-8.79.5-11.21,2a.26.26,0,0,1-.36-.07.27.27,0,0,1,.08-.36c2.52-1.62,8.79-3.06,11.65-2.11a.26.26,0,0,1,0,.5Z" style="fill:#263238"></path><path d="M321.18,241c3.39,42.8,6.73,101.81,6.73,101.81.31,3.25,3.45,17.12,5,33.15,1.66,16.92,3,48.6,3,48.6s-11.9,6.36-21.54,3.17c0,0-10.33-53.36-15.27-73.3-4.68-18.86-12-54.62-12-54.62l-5,35.38s.67,12.2.3,20.74c-.42,9.92-6.79,57.64-6.79,57.64s-12.94,7.58-23-.05c0,0-1.73-65.81-2-77.75-.55-23.43,3.36-68.41,4.22-98.65Z" style="fill:#263238"></path><path d="M304.94,291q1.35,15.39,3,30.75.81,7.68,1.69,15.35l.87,7.67.46,3.84c.14,1.28.4,2.54.6,3.81,1.69,10.16,4.31,28.6,6.16,38.73s3.82,20.25,5.93,30.33q-2-15.31-4.42-30.56c-1.59-10.17-4.09-28.62-5.84-38.76-.2-1.27-.47-2.53-.62-3.81l-.47-3.83-1-7.65q-1-7.66-2-15.31Q307.27,306.25,304.94,291Z"></path><path d="M257.28,288.06c-1.08,9.58-1.65,19.2-2.06,28.81s-.8,19.27-.43,28.89.48,25.74.84,35.36.8,19.23,1.38,28.84q.23-14.43.09-28.86c-.06-9.62-.24-25.74-.43-35.36l-.19-7.21,0-1.8,0-1.79,0-3.6.18-14.43.23-14.42C257,297.68,257.12,292.88,257.28,288.06Z"></path><path d="M287.16,299.8,283,276.35s-11.68-1.69-17.67-7c0,0,3.86,7.06,14.88,9.83l4.17,20.72-2.17,35.31Z"></path></g><g id="freepik--top--inject-28"><path d="M239.86,73.87l14.57-8.41a8.28,8.28,0,0,0,3-11.31h0a8.28,8.28,0,0,0-11.31-3l-14.57,8.41Z" style="fill:#37474f"></path><path d="M240.63,59h0a2.62,2.62,0,0,0,3.57,1l6.9-4a2.62,2.62,0,0,0,1-3.57h0a2.62,2.62,0,0,0-3.57-1l-6.91,4A2.62,2.62,0,0,0,240.63,59Z" style="fill:#455a64"></path><path d="M229.32,68V55.87a4.22,4.22,0,0,1,1.92-3.31l3.35-1.94a4.22,4.22,0,0,1,3.82,0l10.52,6.08A4.22,4.22,0,0,1,250.84,60V72.15a4.24,4.24,0,0,1-1.91,3.31l-3.35,1.94a4.22,4.22,0,0,1-3.82,0l-10.52-6.08A4.2,4.2,0,0,1,229.32,68Z" style="fill:#BA68C8"></path><path d="M229.34,55.56c.14-1,.94-1.35,1.89-.79l10.52,6.07a3.85,3.85,0,0,1,1.35,1.42l7.18-4.14a3.85,3.85,0,0,0-1.35-1.42h0l-10.51-6.07a4.22,4.22,0,0,0-3.82,0l-3.36,1.94A4.31,4.31,0,0,0,229.34,55.56Z" style="fill:#fff;opacity:0.5"></path><path d="M241.76,60.84l-10.52-6.08c-1.06-.61-1.92-.11-1.92,1.11V68a4.2,4.2,0,0,0,1.92,3.31l10.52,6.08c1.05.61,1.91.11,1.91-1.1V64.15A4.24,4.24,0,0,0,241.76,60.84Z" style="opacity:0.2"></path><path d="M234.22,62.81a1.85,1.85,0,0,1,2,.14A6.16,6.16,0,0,1,239,67.78a2,2,0,0,1-.83,1.83h0l-24.28,14L210,76.79Z" style="fill:#455a64"></path><path d="M238.36,65.41a5.63,5.63,0,0,1,.61,2.37,2,2,0,0,1-.83,1.83h0l-24.28,14-1.72-3.08Z" style="fill:#37474f"></path><path d="M212,77a6.17,6.17,0,0,1,2.76,4.83c0,1.79-1.24,2.53-2.76,1.65a6.17,6.17,0,0,1-2.76-4.83C209.2,76.83,210.44,76.09,212,77Z" style="fill:#263238"></path><path d="M229.42,65.58c-2.23-4.22-3.85-4.61-5.16-3.91a2.75,2.75,0,0,0-1.44,3.57,2.19,2.19,0,0,0-3.21-.35c-1.23,1-.72,3.09-.72,3.09a2.12,2.12,0,0,0-2.86.1,2.83,2.83,0,0,0-.8,2.92s-1.12-.77-2.21.65a4.75,4.75,0,0,0-.88,3.92l1.23-.72a3.15,3.15,0,0,0,1,1c.67.43,1.35,1.9,1.93,3.09s1.1,2.66,2.36,2.79a1.75,1.75,0,0,0,2.09-1.5,5,5,0,0,0-.31-1.56s1,1.74,2.59,1.22,1.41-2,1.32-3c1,.24,2.11.36,2.54-.48s-.09-4.12-.09-4.12l2.64-.94a3.27,3.27,0,0,0,1.14-3A7.33,7.33,0,0,0,229.42,65.58Z" style="fill:#ffa8a7"></path><path d="M215.31,82.82a17.07,17.07,0,0,0,2.25,4.93c1.06,1.37,1.63,2.9,2.2,7.52.31,2.51,2,33.34,2,33.34l18.31-8.2L233.46,92.8c-.07-5.3.78-7.76,2.16-10.22,1.83-3.26,2-5.07,1.51-6.59-.92-3.12-2.73-7.51-3.34-8.22-1-1.12-3.27-1.39-3.27-1.39a6.81,6.81,0,0,0-2.81.19l-4.16,4.05s.24,1.52,1.42,1.8a3,3,0,0,0,1.87,0s.59,3,0,3.76-1.08,1-2.34.21c0,1.14.06,2.89-1.24,3.28s-2.84-1-2.84-1,.2,3-.79,3.23a2.23,2.23,0,0,1-1.79-.53Z" style="fill:#ffa8a7"></path><path d="M237.2,106.37l-1.28-5.81s-2.54,2-7.85,2.47a23.37,23.37,0,0,1-8-.39l.32,6.5S229.68,112.41,237.2,106.37Z" style="fill:#fafafa"></path><path d="M229.45,70.94A15.27,15.27,0,0,1,226,72.18,1.77,1.77,0,0,1,223.93,71c-.14-.54,4.11-4.35,4.11-4.35l2.48-.28a6.17,6.17,0,0,0-2.65,0c-.82.26-3.73,3.28-4.41,4s.54,3,2.93,2.28l.24-.07a.28.28,0,0,0,0,.09,5.38,5.38,0,0,1,0,2.76c-.15.55-.33,1.2-1,1.2a1.61,1.61,0,0,1-.86-.31,3.51,3.51,0,0,1-.55-.47,1.59,1.59,0,0,0-.49-.44h0c-.05,0-.06.07-.05.12.05.34.14.67.2,1,.2,1,.13,2.6-1.12,2.82a1.88,1.88,0,0,1-1.69-.51c-.34-.31-.62-.7-1-1-.06,0-.17-.09-.21,0a.14.14,0,0,0,0,.09,7.32,7.32,0,0,1,.4,2.3,1.67,1.67,0,0,1-.63,1.31,2.08,2.08,0,0,1-1.87-.33l-.22-.15s0,0,0,0a.12.12,0,0,0,0,.08,2.29,2.29,0,0,0,.32.43,1.81,1.81,0,0,0,2.38.13,2,2,0,0,0,.77-2,2.28,2.28,0,0,0,2.21.62c1.76-.29,1.79-1.66,1.57-3.06a1.87,1.87,0,0,0,1.05.22,13.58,13.58,0,0,0-2.2,6.63,21.58,21.58,0,0,1,3.7-7A19.72,19.72,0,0,1,232,73S229.7,71.88,229.45,70.94Zm-1.09,3.29a.91.91,0,0,1-.17-.09,2.12,2.12,0,0,1-.47-.56,9.8,9.8,0,0,0-.66-1.13c1.83-.56,2.38-.8,2.38-.8a1.94,1.94,0,0,0,1,.74A18.42,18.42,0,0,0,228.36,74.23Z" style="fill:#f28f8f"></path><path d="M268.35,159.66a84.16,84.16,0,0,0-9-6.82c-3.8-2.58-15.58-19.53-15.58-19.53L237.2,104c-2.15,3.06-12.72,4.4-17.17,2.8,0,0-.09,11.1.95,26.15.48,7,1.14,7.82,6.85,17.85,3.17,5.55,7.8,11.75,13.46,21.28,4.28,7.2,12.57,20.06,14.69,25.62.57,1.5.89,3.58,3,3.29,3.26-.45,7.27-11.66,8.82-16.61C270.75,174.92,269.49,163.57,268.35,159.66Z" style="fill:#BA68C8"></path><path d="M268.35,159.66a84.16,84.16,0,0,0-9-6.82c-3.8-2.58-15.58-19.53-15.58-19.53L237.2,104c-2.15,3.06-12.72,4.4-17.17,2.8,0,0-.09,11.1.95,26.15.48,7,1.14,7.82,6.85,17.85,3.17,5.55,7.8,11.75,13.46,21.28,4.28,7.2,12.57,20.06,14.69,25.62.57,1.5.89,3.58,3,3.29,3.26-.45,7.27-11.66,8.82-16.61C270.75,174.92,269.49,163.57,268.35,159.66Z" style="opacity:0.2"></path><path id="freepik--Chest--inject-28" d="M301.51,161.66C312,164,315.17,165,320.13,166.17c0,0,9.25,26,4.8,44.18-1,4.17-3.36,17.6-3.36,25.26,0,7.33.09,9.71.87,20.11,0,0-14.05,9.8-43.42,6.81-23.06-2.35-24.67-10.46-24.67-10.46s1.28-31.75,1.82-48.7c.67-21,4.1-37.31,12.18-43.71A82.53,82.53,0,0,0,281.92,162Z" style="fill:#BA68C8"></path><path d="M350.94,219.5c1.75,5.74,1.49,8.17-.38,13.89q-1.77,5.38-3.47,10.77c-1.51,4.78-4.13,12.75-4.61,14.62a15.94,15.94,0,0,0-.72,6,36.69,36.69,0,0,1,.38,6.2,25.58,25.58,0,0,1-1.29,7.25c-.53,1.63-.82,3.38-1.46,5a17.86,17.86,0,0,1-2.08,3.05c-.76,1.13-1,2.51-1.93,3.52-1.69,1.78-3.56,2.14-5.21,3-.67,1.11-1.77,3.43-2.53,4.47-1.94,2.67-2.69-1.45-2.71-2.86a20.86,20.86,0,0,1,.57-4.51,102.31,102.31,0,0,0,1.89-11.27c.07-.67.7-3.47-.41-3.39a1.31,1.31,0,0,0-.89.59,31,31,0,0,0-1.77,2.94,19.93,19.93,0,0,1-1.68,2.11,6,6,0,0,1-1.73,1.5c-.7.35-3.34.71-3.53-.5a1.13,1.13,0,0,1,.1-.57c.47-1.3,1-2.54,1.51-3.83a33.17,33.17,0,0,0,1.3-3.91c.89-4.17,1.77-7.61,4-11.13,4.11-6.35,7.49-36.24,7.49-36.24l-8.2-23.32s-6.81-9.36-7.17-21.12,3.91-15.17,3.91-15.17c9.91,1.64,14.7,4.48,17.68,12.71S349.17,213.67,350.94,219.5Z" style="fill:#ffa8a7"></path><path d="M329.08,244.49l-1.25,6.35s2.55-.68,8.9,1.6a24.7,24.7,0,0,1,6.76,3.39l2.06-6.42Z" style="fill:#fafafa"></path><path d="M352.68,223.47c-.41-2.15-3.4-14.67-8.32-30.05s-6-16.56-9.73-21.06-9.68-5.26-14.54-6.21c0,0-3.93,3.16-4.13,13.59a41.79,41.79,0,0,0,6.26,22.69l9.31,23.69-2.88,20.09a24.06,24.06,0,0,1,16.09,6.23l5.66-16.35C353.33,227,353.09,225.63,352.68,223.47Z" style="fill:#BA68C8"></path><path d="M352.68,223.47c-.41-2.15-3.4-14.67-8.32-30.05s-6-16.56-9.73-21.06-9.68-5.26-14.54-6.21c0,0-3.93,3.16-4.13,13.59a41.79,41.79,0,0,0,6.26,22.69l9.31,23.69-2.88,20.09a24.06,24.06,0,0,1,16.09,6.23l5.66-16.35C353.33,227,353.09,225.63,352.68,223.47Z" style="opacity:0.2"></path><path d="M281.73,160.9s-7.06,6.14-4.86,12,12.22,7.12,20.16,1.7,7.38-11.93,7.38-11.93l-2.93-1a9.59,9.59,0,0,1-1.7,3.94c-1.26,1.46-15.88,7.24-16.23,9,0,0-2.16-4.32-2.79-5.94s2.69-8.08,2.69-8.08Z" style="fill:#fafafa"></path><path d="M267.73,114.53a3.76,3.76,0,0,0,1.32,1.42,4.11,4.11,0,0,0-2.08,4.67,8.08,8.08,0,0,0,3.18,4.42c1.46,1.13,3.11,2,4.57,3.15a22,22,0,0,1,4.88,5.69c.67,1.05,1.22,2.18,1.9,3.22a3.85,3.85,0,0,0,1.77,1.28c.9.45,1.73,1.05,2.6,1.56a56.6,56.6,0,0,0,8.08,4,31.8,31.8,0,0,0,8.75,1.71l-.55,7.49s.93-2,2.19-4.32c1.08-2,5.64-12.31,5.64-12.31,1.8-4.05,4-8.27,3.89-12.82-.08-3-1.53-6.15-4.27-7.39a11,11,0,0,0-2.88-8.29,3.15,3.15,0,0,0-1-.84,5.6,5.6,0,0,1-.68-.49,11.67,11.67,0,0,0-3.13-1.58,23.25,23.25,0,0,0-7.13-1h-1.08c-4.26,0-8.72.33-12.59-1.45-1.19-.55-2.29-1.28-3.51-1.76a5,5,0,0,0-3.82-.16,4.63,4.63,0,0,0-2.46,3.52,13.56,13.56,0,0,0,.22,4.44,3.93,3.93,0,0,0-3.86,5.87Z" style="fill:#37474f"></path><path d="M296.91,116.36a14.56,14.56,0,0,0,4.85,10.58c-.47,3-.95,6.08-.39,9.07a4.91,4.91,0,0,0,.66,1.83,2.22,2.22,0,0,0,1.58,1c.88.08,1.26-.45,1.54-1.13a22.06,22.06,0,0,1,1.39-2.52,4.76,4.76,0,0,1,.8-1c1.36-1.21,5.36-2.64,7.12,1.6s-1.78,10.14-5,10.9a5.12,5.12,0,0,1-5.57-2L303,164c-3.05,3.05-16.1,7.1-19.43,10.72-1.41-2.53-5.49-8.76.1-12.15l.25-6.29s-5.34.17-7.75-1.37a16.28,16.28,0,0,1-7.07-12.3c-.35-4.14-.41-14.67.81-19.81,1.13-4.81,2.73-8.23,3.91-9.37-.08,1.11,2,4.22,7.56,5.09A30,30,0,0,0,296.91,116.36Z" style="fill:#ffa8a7"></path><path d="M283.9,156.26c5.1-.37,8.75-1,11.64-2.44,2.12-1.06,4-5.69,4.55-6.89,0,0-.73,5.46-2.72,7.75-2.44,2.79-13.57,4.15-13.57,4.15Z" style="fill:#f28f8f"></path><path d="M288.06,131a1.81,1.81,0,1,0,1.9-1.78A1.86,1.86,0,0,0,288.06,131Z" style="fill:#263238"></path><path d="M289.1,122.93l4.74,2.29a2.75,2.75,0,0,0-1.26-3.59A2.59,2.59,0,0,0,289.1,122.93Z" style="fill:#263238"></path><path d="M287.18,142.59l-6.22,2a3.21,3.21,0,0,0,4,2.22A3.4,3.4,0,0,0,287.18,142.59Z" style="fill:#b16668"></path><path d="M285.21,144.37a3,3,0,0,1,2.05-.3,3.33,3.33,0,0,1-2.26,2.71,3.14,3.14,0,0,1-1.32.12A3,3,0,0,1,285.21,144.37Z" style="fill:#f28f8f"></path><path d="M271.89,124l4.85-1.75a2.5,2.5,0,0,0-3.23-1.51A2.61,2.61,0,0,0,271.89,124Z" style="fill:#263238"></path><path d="M273,130.17a1.82,1.82,0,1,0,1.91-1.79A1.85,1.85,0,0,0,273,130.17Z" style="fill:#263238"></path><path d="M264.87,125a4.08,4.08,0,0,0,.93,2,2,2,0,0,1,.37.74,37.17,37.17,0,0,0,1.35,5.49,6.57,6.57,0,0,0,5.91,4.18,9.15,9.15,0,0,0,2-.06l.15,0a5.29,5.29,0,0,0,1.6-.55l.1,0,.13-.08.18-.11.16-.11.17-.14a1.07,1.07,0,0,0,.16-.14,2.91,2.91,0,0,0,.31-.3,6.67,6.67,0,0,0,1.27-2c.81-1.85.55-4.52,1.93-4.75h.35c1.89.13,1.72,3,2.81,5.13a7.68,7.68,0,0,0,6.95,4.51l.53,0h.43a7.48,7.48,0,0,0,1-.08l.31-.06.29-.07.19-.05a5,5,0,0,0,1.1-.46l.36-.23a5.38,5.38,0,0,0,.64-.52,6.15,6.15,0,0,0,1.21-1.85c.61-1.4.73-4,1-5.32a2.12,2.12,0,0,1,.3-.77,3.35,3.35,0,0,0,.89-1.89,1.82,1.82,0,0,0-1.17-1.76l-1-.19c-3.24-.56-7.45-1-10-.42-3.14.69-4.22,1.64-6,1.52s-2.73-1.23-5.74-2.37c-2.4-.9-6.33-1.1-9.34-1l-.92,0C265.32,123.41,264.79,124.16,264.87,125Zm20.8,3.1a2.31,2.31,0,0,1,.89-.69.8.8,0,0,1,.16-.08l.09,0a3.63,3.63,0,0,1,.44-.19,3.93,3.93,0,0,1,.41-.14,11.3,11.3,0,0,1,1.34-.36l.53-.09a12.83,12.83,0,0,1,1.39-.14h.32c3-.08,4.94.73,5.64,1.39s.45,3.48.18,4.89a.36.36,0,0,1,0,.1.43.43,0,0,1,0,.11q0,.26-.12.57l-.09.35h0a5,5,0,0,1-.19.59h0l-.08.2,0,.12-.06.13-.09.17-.09.18-.12.19-.13.2a4.43,4.43,0,0,1-4.22,1.77,6.3,6.3,0,0,1-4.52-2h0a7.08,7.08,0,0,1-1.52-3C285.33,130.83,285.09,129,285.67,128.13Zm-17.91-2.46a2.49,2.49,0,0,1,.74-.43l.06,0a2.39,2.39,0,0,1,.32-.11l.2-.06a1,1,0,0,1,.17,0l.11,0h0l.17,0a6.9,6.9,0,0,1,.7-.07l.37,0h.41l.48,0h.18l.17,0a13.63,13.63,0,0,1,1.4.21c2.18.43,4.46,1.55,5.06,2.47s.5,2.77.24,4.34a6.4,6.4,0,0,1-.26,1,.31.31,0,0,1,0,.08l0,.1,0,.07a.69.69,0,0,1-.05.13,2.72,2.72,0,0,1-.11.25,1.51,1.51,0,0,1-.11.22l0,.08-.09.14-.08.13v0c-.74,1.11-2.07,2-4.48,1.82a5.77,5.77,0,0,1-2.29-.67c-2.17-1.21-2.76-3.66-3-4.8C267.59,129.1,267.13,126.25,267.76,125.67Z" style="fill:#37474f"></path><path d="M298.94,126l9.23,1.58a8,8,0,0,0-1.8,2l-7.47-1.27Z" style="fill:#37474f"></path><path d="M282.71,129.44l-1.23,11.26-6.62-2.32,7.19-9.2A1.52,1.52,0,0,1,282.71,129.44Z" style="fill:#f28f8f"></path><path d="M281.74,160.12s-3.49,1.51-5.06,9.13a78.84,78.84,0,0,0-1.14,25.84l1.4-3.55s-.52-14.73,1.86-22.14c2.3-7.18,4.92-8.58,4.92-8.58l.08-2.27A7.48,7.48,0,0,0,281.74,160.12Z" style="fill:#263238"></path><path d="M304.42,159.66s-.28,4.38-4.36,10.12S278.27,192,278.27,192l-.68,3.75s19.57-17.82,23.65-23.56S305.6,162,305.6,162Z" style="fill:#263238"></path><path d="M269.12,195.54l-2,28.88a1.07,1.07,0,0,0,.71,1.11l13,3.33a.62.62,0,0,0,.27,0,.48.48,0,0,0,.18-.06l.08-.05,0,0,.85-.73a.75.75,0,0,0,.27-.58l2-28.88a1.07,1.07,0,0,0-.7-1.11l-13-3.33a.61.61,0,0,0-.56.12l-.82.7,0,0-.11.11-.08.12s0,0,0,0l0,.11A1.55,1.55,0,0,0,269.12,195.54Zm5.95,2,2.91.75a1.16,1.16,0,0,1,.78.8l-2.91-.75A1.14,1.14,0,0,1,275.07,197.58Z" style="fill:#e0e0e0"></path><path d="M281.31,228.76l0,0,.85-.73a.75.75,0,0,0,.27-.58l2-28.88a1.13,1.13,0,0,0-.18-.7l-.86.73a1.13,1.13,0,0,1,.18.7l-2,28.88A.82.82,0,0,1,281.31,228.76Z" style="opacity:0.2"></path><path d="M269.12,195.54l-2,28.88a1.07,1.07,0,0,0,.71,1.11l13,3.33a.62.62,0,0,0,.27,0,.54.54,0,0,0,.18-.06l.08-.05a.82.82,0,0,0,.3-.61l2-28.88a1.07,1.07,0,0,0-.71-1.11l-3.65-.93-3.28-.85-6-1.55a.62.62,0,0,0-.52.09l0,0-.11.11-.08.12s0,0,0,0l0,.11A1.55,1.55,0,0,0,269.12,195.54Zm9.64,3.59-2.91-.75a1.14,1.14,0,0,1-.78-.8l2.91.75A1.16,1.16,0,0,1,278.76,199.13Z" style="fill:#f5f5f5"></path><path d="M273.7,198.25a1.22,1.22,0,0,0,.84,1.23l3.3.85a.78.78,0,0,0,1-.77,1.27,1.27,0,0,0-.05-.43l-2.91-.75a1.14,1.14,0,0,1-.78-.8l-.39-.1A.79.79,0,0,0,273.7,198.25Z" style="opacity:0.2"></path><path d="M280.7,202.76l-9.23-2.37a.27.27,0,0,0-.32.28l-.84,12a.41.41,0,0,0,.28.43l9.22,2.36a.27.27,0,0,0,.33-.27l.83-11.95A.42.42,0,0,0,280.7,202.76Z" style="fill:#fafafa"></path><path d="M274.39,209.87a11.13,11.13,0,0,0-1.87.22,4.38,4.38,0,0,0-1.62,3l8.51,2.18a14.22,14.22,0,0,0,.45-3.7A8.34,8.34,0,0,0,277,210Z" style="fill:#BA68C8"></path><path d="M274.38,209.73s-1,.73-.76,1.53,1.54,1.05,2.63.42a1.86,1.86,0,0,0,1.08-1.49L277,210a1.42,1.42,0,0,1-.26.5c-.18.18-2.16.79-2.22,1,0,0-.24-.58-.31-.8s.44-1,.44-1Z" style="fill:#fafafa"></path><path d="M273,203.52a.59.59,0,0,0,.16.2.53.53,0,0,0-.32.59,1.06,1.06,0,0,0,.37.61c.18.16.39.29.57.45a3,3,0,0,1,.58.8c.08.14.14.29.22.44a.49.49,0,0,0,.22.18l.32.23a7.56,7.56,0,0,0,1,.6,4.13,4.13,0,0,0,1.13.31l-.14,1s.14-.25.33-.55.86-1.55.86-1.55a4.16,4.16,0,0,0,.63-1.65,1.08,1.08,0,0,0-.49-1,1.44,1.44,0,0,0-.29-1.11.46.46,0,0,0-.12-.12l-.08-.07a1.63,1.63,0,0,0-.4-.24,3.22,3.22,0,0,0-.92-.2h-.14a3.93,3.93,0,0,1-1.64-.31c-.15-.09-.28-.19-.44-.27a.73.73,0,0,0-.5-.06.61.61,0,0,0-.35.44,1.62,1.62,0,0,0,0,.58.54.54,0,0,0-.57.31A.54.54,0,0,0,273,203.52Z" style="fill:#37474f"></path><path d="M276.8,204a1.91,1.91,0,0,0,.53,1.43,3.7,3.7,0,0,0-.14,1.19.67.67,0,0,0,.07.24.29.29,0,0,0,.2.16c.11,0,.17-.05.21-.14a3.37,3.37,0,0,1,.21-.31.63.63,0,0,1,.11-.12.57.57,0,0,1,.92.28,1.18,1.18,0,0,1-.76,1.38.66.66,0,0,1-.71-.33l-.31,2.52c-.43.37-2.18.77-2.65,1.21-.16-.34-.63-1.2.13-1.59l.1-.82a2.39,2.39,0,0,1-1-.25,2.16,2.16,0,0,1-.81-1.69,11.56,11.56,0,0,1,.3-2.58,3.11,3.11,0,0,1,.6-1.19c0,.14.23.57.94.74A3.88,3.88,0,0,0,276.8,204Z" style="fill:#ffa8a7"></path><path d="M274.71,209.14a4,4,0,0,0,1.55-.21c.28-.11.57-.7.66-.85a2.51,2.51,0,0,1-.43,1c-.35.35-1.82.42-1.82.42Z" style="fill:#f28f8f"></path><path d="M275.41,206a.24.24,0,0,0,.2.28.25.25,0,0,0,.27-.22.24.24,0,0,0-.21-.27A.24.24,0,0,0,275.41,206Z" style="fill:#263238"></path><path d="M275.62,205l.6.35a.38.38,0,0,0-.13-.49A.35.35,0,0,0,275.62,205Z" style="fill:#263238"></path><path d="M275.27,207.38l-.83.2a.41.41,0,0,0,.5.33A.45.45,0,0,0,275.27,207.38Z" style="fill:#b16668"></path><path d="M275,207.6a.32.32,0,0,1,.27,0,.44.44,0,0,1-.33.33h-.17A.37.37,0,0,1,275,207.6Z" style="fill:#f28f8f"></path><path d="M273.47,204.9l.66-.19a.34.34,0,0,0-.41-.23A.36.36,0,0,0,273.47,204.9Z" style="fill:#263238"></path><path d="M273.46,205.68a.24.24,0,1,0,.27-.22A.25.25,0,0,0,273.46,205.68Z" style="fill:#263238"></path><path d="M272.52,204.86a.57.57,0,0,0,.1.28.18.18,0,0,1,0,.1,4.88,4.88,0,0,0,.13.73.85.85,0,0,0,.73.61,1.17,1.17,0,0,0,.26,0h0a.79.79,0,0,0,.22-.06h0l0,0h.05l0,0a.08.08,0,0,0,0,0,.92.92,0,0,0,.19-.25c.12-.23.12-.58.3-.6h0c.25,0,.2.41.32.7a1,1,0,0,0,.87.66h.36l.15-.05,0,0,.08-.06a.85.85,0,0,0,.18-.23,3.75,3.75,0,0,0,.19-.69.19.19,0,0,1,0-.1.44.44,0,0,0,.13-.24.24.24,0,0,0-.13-.24l-.13,0a4.16,4.16,0,0,0-1.3-.16c-.42.06-.57.18-.8.15a4.11,4.11,0,0,1-.73-.37,3.58,3.58,0,0,0-1.22-.22h-.12C272.6,204.65,272.52,204.75,272.52,204.86Zm2.69.61a.32.32,0,0,1,.13-.08h0l.06,0,.06,0,.17,0h.3a1.1,1.1,0,0,1,.73.24c.08.09,0,.46,0,.64h0v0l0,.07v0h0l0,.07h0l0,0h0v0l0,0v0l0,0,0,0a.57.57,0,0,1-.57.19.85.85,0,0,1-.57-.3h0a.89.89,0,0,1-.17-.4A.87.87,0,0,1,275.21,205.47Zm-2.32-.49a.31.31,0,0,1,.1,0h.45l.18,0a1.16,1.16,0,0,1,.64.37.93.93,0,0,1,0,.57.48.48,0,0,1-.05.14h0v0l0,0h0v0h0a.57.57,0,0,1-.61.19.63.63,0,0,1-.29-.11.9.9,0,0,1-.35-.65C272.84,205.42,272.8,205.05,272.89,205Z" style="fill:#37474f"></path><path d="M277,205.33l1.2.29a1,1,0,0,0-.26.25l-1-.24Z" style="fill:#37474f"></path><path d="M274.81,205.62l-.27,1.46-.84-.37,1-1.13A.12.12,0,0,1,274.81,205.62Z" style="fill:#f28f8f"></path><path d="M274.48,211.55c.31-.15.93-.48,1.18-.09s.42.84.63.8a3,3,0,0,0,1.38-1,2.33,2.33,0,0,0,.3-.87,7,7,0,0,1-.35-.7c-.1-.25-.17-.37-.36-.4l-.07.59a2.42,2.42,0,0,1-.66.62C276,210.77,274.94,210.77,274.48,211.55Z" style="fill:#ebebeb"></path><path d="M274.48,211.55c-.16-.17-.25-.46-.54-.41s-.76.66-.76.51a4.83,4.83,0,0,1,.55-1.51c.24-.3.77-.89,1-.86l-.08.68s-.37.4-.36.65S274.47,211.3,274.48,211.55Z" style="fill:#ebebeb"></path><path d="M278.14,216.49l-6.08-1.56a.37.37,0,0,0-.44.37v.16a.56.56,0,0,0,.37.57l6.08,1.57a.36.36,0,0,0,.43-.37v-.16A.56.56,0,0,0,278.14,216.49Z" style="fill:#455a64"></path><path d="M279.39,220.18l-2.17-.56a.15.15,0,0,0-.18.14.23.23,0,0,0,.16.23l2.16.56a.14.14,0,0,0,.18-.14A.23.23,0,0,0,279.39,220.18Z" style="fill:#455a64"></path><path d="M275.64,219.22l-5.3-1.36a.15.15,0,0,0-.18.14.24.24,0,0,0,.16.23l5.29,1.36a.15.15,0,0,0,.18-.14A.21.21,0,0,0,275.64,219.22Z" style="fill:#455a64"></path><path d="M279.34,220.92l-2.17-.56a.14.14,0,0,0-.18.14.23.23,0,0,0,.16.23l2.16.56a.14.14,0,0,0,.18-.14A.21.21,0,0,0,279.34,220.92Z" style="fill:#455a64"></path><path d="M275.59,220l-5.3-1.36a.15.15,0,0,0-.18.14.21.21,0,0,0,.16.23l5.29,1.36a.14.14,0,0,0,.18-.14A.23.23,0,0,0,275.59,220Z" style="fill:#455a64"></path><path d="M279.29,221.65l-2.17-.56a.15.15,0,0,0-.18.14.21.21,0,0,0,.15.23l2.17.56a.14.14,0,0,0,.18-.14A.23.23,0,0,0,279.29,221.65Z" style="fill:#455a64"></path><path d="M275.54,220.69l-5.3-1.36a.15.15,0,0,0-.18.14.23.23,0,0,0,.15.23l5.3,1.36a.15.15,0,0,0,.18-.14A.21.21,0,0,0,275.54,220.69Z" style="fill:#455a64"></path><path d="M279.24,222.39l-2.17-.56a.14.14,0,0,0-.18.14.23.23,0,0,0,.15.23l2.17.56a.15.15,0,0,0,.18-.14A.21.21,0,0,0,279.24,222.39Z" style="fill:#455a64"></path><path d="M275.48,221.43l-5.29-1.37a.15.15,0,0,0-.18.15.21.21,0,0,0,.15.22l5.3,1.36a.14.14,0,0,0,.18-.14A.22.22,0,0,0,275.48,221.43Z" style="fill:#455a64"></path><polygon points="278.34 223.95 278.18 226.25 277.53 226.09 277.69 223.78 278.34 223.95" style="fill:#455a64"></polygon><polygon points="276.38 223.45 276.22 225.75 275.57 225.58 275.73 223.28 276.38 223.45" style="fill:#455a64"></polygon><polygon points="273.77 222.78 273.61 225.08 272.96 224.91 273.12 222.61 273.77 222.78" style="fill:#455a64"></polygon><polygon points="271.49 222.19 271.33 224.49 270.68 224.33 270.84 222.02 271.49 222.19" style="fill:#455a64"></polygon><polygon points="277.36 223.7 277.2 226 276.88 225.92 277.04 223.62 277.36 223.7" style="fill:#455a64"></polygon><polygon points="272.79 222.53 272.63 224.83 272.31 224.75 272.47 222.44 272.79 222.53" style="fill:#455a64"></polygon><polygon points="274.75 223.03 274.59 225.33 274.26 225.25 274.43 222.95 274.75 223.03" style="fill:#455a64"></polygon><polygon points="276.71 223.53 276.55 225.84 276.39 225.79 276.55 223.49 276.71 223.53" style="fill:#455a64"></polygon><polygon points="274.2 222.89 274.04 225.19 273.88 225.15 274.04 222.85 274.2 222.89" style="fill:#455a64"></polygon><polygon points="275.24 223.16 275.08 225.46 274.92 225.42 275.08 223.11 275.24 223.16" style="fill:#455a64"></polygon><polygon points="271.98 222.32 271.82 224.62 271.65 224.58 271.81 222.28 271.98 222.32" style="fill:#455a64"></polygon><polygon points="275.57 223.24 275.41 225.54 275.24 225.5 275.4 223.2 275.57 223.24" style="fill:#455a64"></polygon><polygon points="272.31 222.4 272.14 224.7 271.98 224.66 272.14 222.36 272.31 222.4" style="fill:#455a64"></polygon><path d="M277.62,218.15l-5.29-1.37a.15.15,0,0,0-.18.15.21.21,0,0,0,.15.22l5.3,1.36a.14.14,0,0,0,.18-.14A.22.22,0,0,0,277.62,218.15Z" style="opacity:0.30000000000000004"></path><path d="M277.48,198.44c-.3-.07-.14-1.21,0-1.9.26-1.55.82-4.58.82-4.58l-2.08-.42c-.32,1.87-.56,2.9-.84,4.68-.1.69-.19,1.63.11,1.7Z" style="fill:#455a64"></path><path d="M277.47,198.44c.08,0,.18,0,.32-.15l-.19,0,0,0a.83.83,0,0,1,0-.25v-.08c0-.27.1-.85.16-1.16.29-1.74.85-4.69.85-4.69l-.3-.08c-.35,1.72-.66,3.58-.86,4.86C277.3,197.52,277.17,198.37,277.47,198.44Z" style="fill:#37474f"></path><path d="M283.55,174.7c2.27-1.31,6.76-4.21,8.89-1.36s3.63,6.14,5.26,5.71,7.69-4.42,9.84-8.7a17.4,17.4,0,0,0,1.78-6.78,50.12,50.12,0,0,1-3-5.08c-.87-1.83-1.51-2.7-2.92-2.83l-.21,4.53a18.05,18.05,0,0,1-4.66,5C294.48,167.92,286.6,168.5,283.55,174.7Z" style="fill:#ebebeb"></path><path d="M283.55,174.7c-1.3-1.24-2.18-3.37-4.37-2.8s-5.4,5.43-5.44,4.27,1.58-9.39,3.28-11.79,5.36-7.19,6.84-7.07l-.21,5.24s-2.64,3.2-2.39,5.16S283.33,172.8,283.55,174.7Z" style="fill:#ebebeb"></path></g></g></g></svg>